<?xml version="1.0" encoding="UTF-8" standalone="no"?><svg xmlns="http://www.w3.org/2000/svg" xmlns:xlink="http://www.w3.org/1999/xlink" contentScriptType="application/ecmascript" contentStyleType="text/css" height="1540px" preserveAspectRatio="none" style="width:655px;height:1540px;" version="1.1" viewBox="0 0 655 1540" width="655px" zoomAndPan="magnify"><defs><filter height="300%" id="f164wtywpel47d" width="300%" x="-1" y="-1"><feGaussianBlur result="blurOut" stdDeviation="2.5"/><feColorMatrix in="blurOut" result="blurOut2" type="matrix" values="0 0 0 0 0 0 0 0 0 0 0 0 0 0 0 0 0 0 .4 0"/><feOffset dx="5.0" dy="5.0" in="blurOut2" result="blurOut3"/><feBlend in="SourceGraphic" in2="blurOut3" mode="normal"/></filter></defs><g><rect fill="#FFFFFF" filter="url(#f164wtywpel47d)" height="1369.7363" style="stroke: #A80036; stroke-width: 1.25;" width="12.5" x="122.5" y="92.4512"/><rect fill="#FFFFFF" filter="url(#f164wtywpel47d)" height="37.9395" style="stroke: #A80036; stroke-width: 1.25;" width="12.5" x="383.75" y="193.7695"/><rect fill="#FFFFFF" filter="url(#f164wtywpel47d)" height="37.9395" style="stroke: #A80036; stroke-width: 1.25;" width="12.5" x="383.75" y="460.5957"/><rect fill="#FFFFFF" filter="url(#f164wtywpel47d)" height="737.2656" style="stroke: #A80036; stroke-width: 1.25;" width="12.5" x="383.75" y="736.1719"/><rect fill="#FFFFFF" filter="url(#f164wtywpel47d)" height="444.3945" style="stroke: #A80036; stroke-width: 1.25;" width="12.5" x="390" y="1029.043"/><rect fill="#FFFFFF" filter="url(#f164wtywpel47d)" height="37.9395" style="stroke: #A80036; stroke-width: 1.25;" width="12.5" x="396.25" y="1310.8691"/><rect fill="#FFFFFF" filter="url(#f164wtywpel47d)" height="217.6367" style="stroke: #000000; stroke-width: 2.5;" width="556.25" x="69.375" y="111.2012"/><rect fill="#FFFFFF" filter="url(#f164wtywpel47d)" height="98.8184" style="stroke: #000000; stroke-width: 2.5;" width="416.25" x="81.875" y="142.8906"/><rect fill="#FFFFFF" filter="url(#f164wtywpel47d)" height="60.8789" style="stroke: #000000; stroke-width: 2.5;" width="531.25" x="81.875" y="259.209"/><rect fill="#FFFFFF" filter="url(#f164wtywpel47d)" height="258.0762" style="stroke: #000000; stroke-width: 2.5;" width="581.25" x="56.875" y="346.3379"/><rect fill="#FFFFFF" filter="url(#f164wtywpel47d)" height="217.6367" style="stroke: #000000; stroke-width: 2.5;" width="556.25" x="69.375" y="378.0273"/><rect fill="#FFFFFF" filter="url(#f164wtywpel47d)" height="98.8184" style="stroke: #000000; stroke-width: 2.5;" width="416.25" x="81.875" y="409.7168"/><rect fill="#FFFFFF" filter="url(#f164wtywpel47d)" height="60.8789" style="stroke: #000000; stroke-width: 2.5;" width="531.25" x="81.875" y="526.0352"/><rect fill="#FFFFFF" filter="url(#f164wtywpel47d)" height="588.8867" style="stroke: #000000; stroke-width: 2.5;" width="581.25" x="56.875" y="621.9141"/><rect fill="#FFFFFF" filter="url(#f164wtywpel47d)" height="255.5762" style="stroke: #000000; stroke-width: 2.5;" width="556.25" x="69.375" y="653.6035"/><rect fill="#FFFFFF" filter="url(#f164wtywpel47d)" height="136.7578" style="stroke: #000000; stroke-width: 2.5;" width="416.25" x="81.875" y="685.293"/><rect fill="#FFFFFF" filter="url(#f164wtywpel47d)" height="60.8789" style="stroke: #000000; stroke-width: 2.5;" width="531.25" x="81.875" y="839.5508"/><rect fill="#FFFFFF" height="292.8711" style="stroke: none; stroke-width: 1.25;" width="581.25" x="56.875" y="917.9297"/><rect fill="#FFFFFF" filter="url(#f164wtywpel47d)" height="255.5762" style="stroke: #000000; stroke-width: 2.5;" width="556.25" x="69.375" y="946.4746"/><rect fill="#FFFFFF" filter="url(#f164wtywpel47d)" height="136.7578" style="stroke: #000000; stroke-width: 2.5;" width="416.25" x="81.875" y="978.1641"/><rect fill="#FFFFFF" filter="url(#f164wtywpel47d)" height="60.8789" style="stroke: #000000; stroke-width: 2.5;" width="531.25" x="81.875" y="1132.4219"/><rect fill="#FFFFFF" filter="url(#f164wtywpel47d)" height="217.6367" style="stroke: #000000; stroke-width: 2.5;" width="556.25" x="69.375" y="1228.3008"/><rect fill="#FFFFFF" filter="url(#f164wtywpel47d)" height="98.8184" style="stroke: #000000; stroke-width: 2.5;" width="416.25" x="81.875" y="1259.9902"/><rect fill="#FFFFFF" filter="url(#f164wtywpel47d)" height="60.8789" style="stroke: #000000; stroke-width: 2.5;" width="531.25" x="81.875" y="1376.3086"/><line style="stroke: #A80036; stroke-width: 1.25; stroke-dasharray: 5.0,5.0;" x1="128.125" x2="128.125" y1="52.0117" y2="1484.6875"/><line style="stroke: #A80036; stroke-width: 1.25; stroke-dasharray: 5.0,5.0;" x1="389.375" x2="389.375" y1="52.0117" y2="1484.6875"/><line style="stroke: #A80036; stroke-width: 1.25; stroke-dasharray: 5.0,5.0;" x1="549.375" x2="549.375" y1="52.0117" y2="1484.6875"/><rect fill="#FEFECE" filter="url(#f164wtywpel47d)" height="39.5117" style="stroke: #A80036; stroke-width: 1.875;" width="63.75" x="94.375" y="6.25"/><text fill="#000000" font-family="sans-serif" font-size="17.5" lengthAdjust="spacingAndGlyphs" textLength="46.25" x="103.125" y="33.1665">Agent</text><rect fill="#FEFECE" filter="url(#f164wtywpel47d)" height="39.5117" style="stroke: #A80036; stroke-width: 1.875;" width="63.75" x="94.375" y="1483.4375"/><text fill="#000000" font-family="sans-serif" font-size="17.5" lengthAdjust="spacingAndGlyphs" textLength="46.25" x="103.125" y="1510.354">Agent</text><rect fill="#FEFECE" filter="url(#f164wtywpel47d)" height="39.5117" style="stroke: #A80036; stroke-width: 1.875;" width="186.25" x="294.375" y="6.25"/><text fill="#000000" font-family="sans-serif" font-size="17.5" lengthAdjust="spacingAndGlyphs" textLength="168.75" x="303.125" y="33.1665">VirtualCoffeeMachine</text><rect fill="#FEFECE" filter="url(#f164wtywpel47d)" height="39.5117" style="stroke: #A80036; stroke-width: 1.875;" width="186.25" x="294.375" y="1483.4375"/><text fill="#000000" font-family="sans-serif" font-size="17.5" lengthAdjust="spacingAndGlyphs" textLength="168.75" x="303.125" y="1510.354">VirtualCoffeeMachine</text><rect fill="#FEFECE" filter="url(#f164wtywpel47d)" height="39.5117" style="stroke: #A80036; stroke-width: 1.875;" width="97.5" x="498.125" y="6.25"/><text fill="#000000" font-family="sans-serif" font-size="17.5" lengthAdjust="spacingAndGlyphs" textLength="80" x="506.875" y="33.1665">TestThing</text><rect fill="#FEFECE" filter="url(#f164wtywpel47d)" height="39.5117" style="stroke: #A80036; stroke-width: 1.875;" width="97.5" x="498.125" y="1483.4375"/><text fill="#000000" font-family="sans-serif" font-size="17.5" lengthAdjust="spacingAndGlyphs" textLength="80" x="506.875" y="1510.354">TestThing</text><rect fill="#FFFFFF" filter="url(#f164wtywpel47d)" height="1369.7363" style="stroke: #A80036; stroke-width: 1.25;" width="12.5" x="122.5" y="92.4512"/><rect fill="#FFFFFF" filter="url(#f164wtywpel47d)" height="37.9395" style="stroke: #A80036; stroke-width: 1.25;" width="12.5" x="383.75" y="193.7695"/><rect fill="#FFFFFF" filter="url(#f164wtywpel47d)" height="37.9395" style="stroke: #A80036; stroke-width: 1.25;" width="12.5" x="383.75" y="460.5957"/><rect fill="#FFFFFF" filter="url(#f164wtywpel47d)" height="737.2656" style="stroke: #A80036; stroke-width: 1.25;" width="12.5" x="383.75" y="736.1719"/><rect fill="#FFFFFF" filter="url(#f164wtywpel47d)" height="444.3945" style="stroke: #A80036; stroke-width: 1.25;" width="12.5" x="390" y="1029.043"/><rect fill="#FFFFFF" filter="url(#f164wtywpel47d)" height="37.9395" style="stroke: #A80036; stroke-width: 1.25;" width="12.5" x="396.25" y="1310.8691"/><polygon fill="#A80036" points="107.5,87.4512,120,92.4512,107.5,97.4512,112.5,92.4512" style="stroke: #A80036; stroke-width: 1.25;"/><line style="stroke: #A80036; stroke-width: 1.25;" x1="0" x2="115" y1="92.4512" y2="92.4512"/><text fill="#000000" font-family="sans-serif" font-size="16.25" lengthAdjust="spacingAndGlyphs" textLength="98.75" x="8.75" y="86.3806">top:example()</text><path d="M69.375,111.2012 L163.125,111.2012 L163.125,121.2012 L150.625,133.7012 L69.375,133.7012 L69.375,111.2012 " fill="#EEEEEE" style="stroke: #000000; stroke-width: 1.25;"/><rect fill="none" height="217.6367" style="stroke: #000000; stroke-width: 2.5;" width="556.25" x="69.375" y="111.2012"/><text fill="#000000" font-family="sans-serif" font-size="16.25" font-weight="bold" lengthAdjust="spacingAndGlyphs" textLength="37.5" x="88.125" y="129.3201">strict</text><path d="M81.875,142.8906 L164.375,142.8906 L164.375,152.8906 L151.875,165.3906 L81.875,165.3906 L81.875,142.8906 " fill="#EEEEEE" style="stroke: #000000; stroke-width: 1.25;"/><rect fill="none" height="98.8184" style="stroke: #000000; stroke-width: 2.5;" width="416.25" x="81.875" y="142.8906"/><text fill="#000000" font-family="sans-serif" font-size="16.25" font-weight="bold" lengthAdjust="spacingAndGlyphs" textLength="26.25" x="100.625" y="161.0095">par</text><polygon fill="#A80036" points="368.75,188.7695,381.25,193.7695,368.75,198.7695,373.75,193.7695" style="stroke: #A80036; stroke-width: 1.25;"/><line style="stroke: #A80036; stroke-width: 1.25;" x1="135" x2="376.25" y1="193.7695" y2="193.7695"/><text fill="#000000" font-family="sans-serif" font-size="16.25" lengthAdjust="spacingAndGlyphs" textLength="201.25" x="143.75" y="187.699">readProperty: "waterStatus"</text><polygon fill="#A80036" points="148.75,226.709,136.25,231.709,148.75,236.709,143.75,231.709" style="stroke: #A80036; stroke-width: 1.25;"/><line style="stroke: #A80036; stroke-width: 1.25; stroke-dasharray: 2.0,2.0;" x1="141.25" x2="388.75" y1="231.709" y2="231.709"/><text fill="#000000" font-family="sans-serif" font-size="16.25" lengthAdjust="spacingAndGlyphs" textLength="66.25" x="156.25" y="225.6384">response</text><path d="M81.875,259.209 L164.375,259.209 L164.375,269.209 L151.875,281.709 L81.875,281.709 L81.875,259.209 " fill="#EEEEEE" style="stroke: #000000; stroke-width: 1.25;"/><rect fill="none" height="60.8789" style="stroke: #000000; stroke-width: 2.5;" width="531.25" x="81.875" y="259.209"/><text fill="#000000" font-family="sans-serif" font-size="16.25" font-weight="bold" lengthAdjust="spacingAndGlyphs" textLength="26.25" x="100.625" y="277.3279">par</text><polygon fill="#A80036" points="534.375,305.0879,546.875,310.0879,534.375,315.0879,539.375,310.0879" style="stroke: #A80036; stroke-width: 1.25;"/><line style="stroke: #A80036; stroke-width: 1.25;" x1="135" x2="541.875" y1="310.0879" y2="310.0879"/><text fill="#000000" font-family="sans-serif" font-size="16.25" lengthAdjust="spacingAndGlyphs" textLength="157.5" x="143.75" y="304.0173">writeProperty: "string"</text><path d="M56.875,346.3379 L148.125,346.3379 L148.125,356.3379 L135.625,368.8379 L56.875,368.8379 L56.875,346.3379 " fill="#EEEEEE" style="stroke: #000000; stroke-width: 1.25;"/><rect fill="none" height="258.0762" style="stroke: #000000; stroke-width: 2.5;" width="581.25" x="56.875" y="346.3379"/><text fill="#000000" font-family="sans-serif" font-size="16.25" font-weight="bold" lengthAdjust="spacingAndGlyphs" textLength="35" x="75.625" y="364.4568">loop</text><text fill="#000000" font-family="sans-serif" font-size="13.75" font-weight="bold" lengthAdjust="spacingAndGlyphs" textLength="25" x="166.875" y="363.1116">[3x]</text><path d="M69.375,378.0273 L163.125,378.0273 L163.125,388.0273 L150.625,400.5273 L69.375,400.5273 L69.375,378.0273 " fill="#EEEEEE" style="stroke: #000000; stroke-width: 1.25;"/><rect fill="none" height="217.6367" style="stroke: #000000; stroke-width: 2.5;" width="556.25" x="69.375" y="378.0273"/><text fill="#000000" font-family="sans-serif" font-size="16.25" font-weight="bold" lengthAdjust="spacingAndGlyphs" textLength="37.5" x="88.125" y="396.1462">strict</text><path d="M81.875,409.7168 L164.375,409.7168 L164.375,419.7168 L151.875,432.2168 L81.875,432.2168 L81.875,409.7168 " fill="#EEEEEE" style="stroke: #000000; stroke-width: 1.25;"/><rect fill="none" height="98.8184" style="stroke: #000000; stroke-width: 2.5;" width="416.25" x="81.875" y="409.7168"/><text fill="#000000" font-family="sans-serif" font-size="16.25" font-weight="bold" lengthAdjust="spacingAndGlyphs" textLength="26.25" x="100.625" y="427.8357">par</text><polygon fill="#A80036" points="368.75,455.5957,381.25,460.5957,368.75,465.5957,373.75,460.5957" style="stroke: #A80036; stroke-width: 1.25;"/><line style="stroke: #A80036; stroke-width: 1.25;" x1="135" x2="376.25" y1="460.5957" y2="460.5957"/><text fill="#000000" font-family="sans-serif" font-size="16.25" lengthAdjust="spacingAndGlyphs" textLength="201.25" x="143.75" y="454.5251">readProperty: "waterStatus"</text><polygon fill="#A80036" points="148.75,493.5352,136.25,498.5352,148.75,503.5352,143.75,498.5352" style="stroke: #A80036; stroke-width: 1.25;"/><line style="stroke: #A80036; stroke-width: 1.25; stroke-dasharray: 2.0,2.0;" x1="141.25" x2="388.75" y1="498.5352" y2="498.5352"/><text fill="#000000" font-family="sans-serif" font-size="16.25" lengthAdjust="spacingAndGlyphs" textLength="66.25" x="156.25" y="492.4646">response</text><path d="M81.875,526.0352 L164.375,526.0352 L164.375,536.0352 L151.875,548.5352 L81.875,548.5352 L81.875,526.0352 " fill="#EEEEEE" style="stroke: #000000; stroke-width: 1.25;"/><rect fill="none" height="60.8789" style="stroke: #000000; stroke-width: 2.5;" width="531.25" x="81.875" y="526.0352"/><text fill="#000000" font-family="sans-serif" font-size="16.25" font-weight="bold" lengthAdjust="spacingAndGlyphs" textLength="26.25" x="100.625" y="544.1541">par</text><polygon fill="#A80036" points="534.375,571.9141,546.875,576.9141,534.375,581.9141,539.375,576.9141" style="stroke: #A80036; stroke-width: 1.25;"/><line style="stroke: #A80036; stroke-width: 1.25;" x1="135" x2="541.875" y1="576.9141" y2="576.9141"/><text fill="#000000" font-family="sans-serif" font-size="16.25" lengthAdjust="spacingAndGlyphs" textLength="157.5" x="143.75" y="570.8435">writeProperty: "string"</text><path d="M56.875,621.9141 L133.125,621.9141 L133.125,631.9141 L120.625,644.4141 L56.875,644.4141 L56.875,621.9141 " fill="#EEEEEE" style="stroke: #000000; stroke-width: 1.25;"/><rect fill="none" height="588.8867" style="stroke: #000000; stroke-width: 2.5;" width="581.25" x="56.875" y="621.9141"/><text fill="#000000" font-family="sans-serif" font-size="16.25" font-weight="bold" lengthAdjust="spacingAndGlyphs" textLength="20" x="75.625" y="640.033">alt</text><text fill="#000000" font-family="sans-serif" font-size="13.75" font-weight="bold" lengthAdjust="spacingAndGlyphs" textLength="132.5" x="151.875" y="638.6877">[variable unknown]</text><path d="M69.375,653.6035 L163.125,653.6035 L163.125,663.6035 L150.625,676.1035 L69.375,676.1035 L69.375,653.6035 " fill="#EEEEEE" style="stroke: #000000; stroke-width: 1.25;"/><rect fill="none" height="255.5762" style="stroke: #000000; stroke-width: 2.5;" width="556.25" x="69.375" y="653.6035"/><text fill="#000000" font-family="sans-serif" font-size="16.25" font-weight="bold" lengthAdjust="spacingAndGlyphs" textLength="37.5" x="88.125" y="671.7224">strict</text><path d="M81.875,685.293 L164.375,685.293 L164.375,695.293 L151.875,707.793 L81.875,707.793 L81.875,685.293 " fill="#EEEEEE" style="stroke: #000000; stroke-width: 1.25;"/><rect fill="none" height="136.7578" style="stroke: #000000; stroke-width: 2.5;" width="416.25" x="81.875" y="685.293"/><text fill="#000000" font-family="sans-serif" font-size="16.25" font-weight="bold" lengthAdjust="spacingAndGlyphs" textLength="26.25" x="100.625" y="703.4119">par</text><polygon fill="#A80036" points="368.75,731.1719,381.25,736.1719,368.75,741.1719,373.75,736.1719" style="stroke: #A80036; stroke-width: 1.25;"/><line style="stroke: #A80036; stroke-width: 1.25;" x1="135" x2="376.25" y1="736.1719" y2="736.1719"/><text fill="#000000" font-family="sans-serif" font-size="16.25" lengthAdjust="spacingAndGlyphs" textLength="225" x="143.75" y="730.1013">subscribeEvent: "maintenance"</text><polygon fill="#A80036" points="148.75,769.1113,136.25,774.1113,148.75,779.1113,143.75,774.1113" style="stroke: #A80036; stroke-width: 1.25;"/><line style="stroke: #A80036; stroke-width: 1.25; stroke-dasharray: 2.0,2.0;" x1="141.25" x2="382.5" y1="774.1113" y2="774.1113"/><text fill="#000000" font-family="sans-serif" font-size="16.25" lengthAdjust="spacingAndGlyphs" textLength="87.5" x="156.25" y="768.0408">confirmation</text><line style="stroke: #A80036; stroke-width: 1.25;" x1="135" x2="147.5" y1="812.0508" y2="807.0508"/><line style="stroke: #A80036; stroke-width: 1.25;" x1="135" x2="147.5" y1="812.0508" y2="817.0508"/><line style="stroke: #A80036; stroke-width: 1.25;" x1="135" x2="382.5" y1="812.0508" y2="812.0508"/><text fill="#000000" font-family="sans-serif" font-size="16.25" lengthAdjust="spacingAndGlyphs" textLength="88.75" x="156.25" y="805.9802">data-pushed</text><path d="M81.875,839.5508 L164.375,839.5508 L164.375,849.5508 L151.875,862.0508 L81.875,862.0508 L81.875,839.5508 " fill="#EEEEEE" style="stroke: #000000; stroke-width: 1.25;"/><rect fill="none" height="60.8789" style="stroke: #000000; stroke-width: 2.5;" width="531.25" x="81.875" y="839.5508"/><text fill="#000000" font-family="sans-serif" font-size="16.25" font-weight="bold" lengthAdjust="spacingAndGlyphs" textLength="26.25" x="100.625" y="857.6697">par</text><polygon fill="#A80036" points="534.375,885.4297,546.875,890.4297,534.375,895.4297,539.375,890.4297" style="stroke: #A80036; stroke-width: 1.25;"/><line style="stroke: #A80036; stroke-width: 1.25;" x1="135" x2="541.875" y1="890.4297" y2="890.4297"/><text fill="#000000" font-family="sans-serif" font-size="16.25" lengthAdjust="spacingAndGlyphs" textLength="135" x="143.75" y="884.3591">writeProperty: "int"</text><line style="stroke: #000000; stroke-width: 1.25; stroke-dasharray: 2.0,2.0;" x1="56.875" x2="638.125" y1="919.1797" y2="919.1797"/><text fill="#000000" font-family="sans-serif" font-size="13.75" font-weight="bold" lengthAdjust="spacingAndGlyphs" textLength="40" x="63.125" y="933.4534">[else]</text><path d="M69.375,946.4746 L163.125,946.4746 L163.125,956.4746 L150.625,968.9746 L69.375,968.9746 L69.375,946.4746 " fill="#EEEEEE" style="stroke: #000000; stroke-width: 1.25;"/><rect fill="none" height="255.5762" style="stroke: #000000; stroke-width: 2.5;" width="556.25" x="69.375" y="946.4746"/><text fill="#000000" font-family="sans-serif" font-size="16.25" font-weight="bold" lengthAdjust="spacingAndGlyphs" textLength="37.5" x="88.125" y="964.5935">strict</text><path d="M81.875,978.1641 L164.375,978.1641 L164.375,988.1641 L151.875,1000.6641 L81.875,1000.6641 L81.875,978.1641 " fill="#EEEEEE" style="stroke: #000000; stroke-width: 1.25;"/><rect fill="none" height="136.7578" style="stroke: #000000; stroke-width: 2.5;" width="416.25" x="81.875" y="978.1641"/><text fill="#000000" font-family="sans-serif" font-size="16.25" font-weight="bold" lengthAdjust="spacingAndGlyphs" textLength="26.25" x="100.625" y="996.283">par</text><polygon fill="#A80036" points="375,1024.043,387.5,1029.043,375,1034.043,380,1029.043" style="stroke: #A80036; stroke-width: 1.25;"/><line style="stroke: #A80036; stroke-width: 1.25;" x1="135" x2="382.5" y1="1029.043" y2="1029.043"/><text fill="#000000" font-family="sans-serif" font-size="16.25" lengthAdjust="spacingAndGlyphs" textLength="165" x="143.75" y="1022.9724">subscribeEvent: "error"</text><polygon fill="#A80036" points="148.75,1061.9824,136.25,1066.9824,148.75,1071.9824,143.75,1066.9824" style="stroke: #A80036; stroke-width: 1.25;"/><line style="stroke: #A80036; stroke-width: 1.25; stroke-dasharray: 2.0,2.0;" x1="141.25" x2="388.75" y1="1066.9824" y2="1066.9824"/><text fill="#000000" font-family="sans-serif" font-size="16.25" lengthAdjust="spacingAndGlyphs" textLength="87.5" x="156.25" y="1060.9119">confirmation</text><line style="stroke: #A80036; stroke-width: 1.25;" x1="135" x2="147.5" y1="1104.9219" y2="1099.9219"/><line style="stroke: #A80036; stroke-width: 1.25;" x1="135" x2="147.5" y1="1104.9219" y2="1109.9219"/><line style="stroke: #A80036; stroke-width: 1.25;" x1="135" x2="388.75" y1="1104.9219" y2="1104.9219"/><text fill="#000000" font-family="sans-serif" font-size="16.25" lengthAdjust="spacingAndGlyphs" textLength="88.75" x="156.25" y="1098.8513">data-pushed</text><path d="M81.875,1132.4219 L164.375,1132.4219 L164.375,1142.4219 L151.875,1154.9219 L81.875,1154.9219 L81.875,1132.4219 " fill="#EEEEEE" style="stroke: #000000; stroke-width: 1.25;"/><rect fill="none" height="60.8789" style="stroke: #000000; stroke-width: 2.5;" width="531.25" x="81.875" y="1132.4219"/><text fill="#000000" font-family="sans-serif" font-size="16.25" font-weight="bold" lengthAdjust="spacingAndGlyphs" textLength="26.25" x="100.625" y="1150.5408">par</text><polygon fill="#A80036" points="534.375,1178.3008,546.875,1183.3008,534.375,1188.3008,539.375,1183.3008" style="stroke: #A80036; stroke-width: 1.25;"/><line style="stroke: #A80036; stroke-width: 1.25;" x1="135" x2="541.875" y1="1183.3008" y2="1183.3008"/><text fill="#000000" font-family="sans-serif" font-size="16.25" lengthAdjust="spacingAndGlyphs" textLength="147.5" x="143.75" y="1177.2302">writeProperty: "bool"</text><path d="M69.375,1228.3008 L163.125,1228.3008 L163.125,1238.3008 L150.625,1250.8008 L69.375,1250.8008 L69.375,1228.3008 " fill="#EEEEEE" style="stroke: #000000; stroke-width: 1.25;"/><rect fill="none" height="217.6367" style="stroke: #000000; stroke-width: 2.5;" width="556.25" x="69.375" y="1228.3008"/><text fill="#000000" font-family="sans-serif" font-size="16.25" font-weight="bold" lengthAdjust="spacingAndGlyphs" textLength="37.5" x="88.125" y="1246.4197">strict</text><path d="M81.875,1259.9902 L164.375,1259.9902 L164.375,1269.9902 L151.875,1282.4902 L81.875,1282.4902 L81.875,1259.9902 " fill="#EEEEEE" style="stroke: #000000; stroke-width: 1.25;"/><rect fill="none" height="98.8184" style="stroke: #000000; stroke-width: 2.5;" width="416.25" x="81.875" y="1259.9902"/><text fill="#000000" font-family="sans-serif" font-size="16.25" font-weight="bold" lengthAdjust="spacingAndGlyphs" textLength="26.25" x="100.625" y="1278.1091">par</text><polygon fill="#A80036" points="381.25,1305.8691,393.75,1310.8691,381.25,1315.8691,386.25,1310.8691" style="stroke: #A80036; stroke-width: 1.25;"/><line style="stroke: #A80036; stroke-width: 1.25;" x1="135" x2="388.75" y1="1310.8691" y2="1310.8691"/><text fill="#000000" font-family="sans-serif" font-size="16.25" lengthAdjust="spacingAndGlyphs" textLength="205" x="143.75" y="1304.7986">readProperty: "coffeeStatus"</text><polygon fill="#A80036" points="148.75,1343.8086,136.25,1348.8086,148.75,1353.8086,143.75,1348.8086" style="stroke: #A80036; stroke-width: 1.25;"/><line style="stroke: #A80036; stroke-width: 1.25; stroke-dasharray: 2.0,2.0;" x1="141.25" x2="388.75" y1="1348.8086" y2="1348.8086"/><text fill="#000000" font-family="sans-serif" font-size="16.25" lengthAdjust="spacingAndGlyphs" textLength="66.25" x="156.25" y="1342.738">response</text><path d="M81.875,1376.3086 L164.375,1376.3086 L164.375,1386.3086 L151.875,1398.8086 L81.875,1398.8086 L81.875,1376.3086 " fill="#EEEEEE" style="stroke: #000000; stroke-width: 1.25;"/><rect fill="none" height="60.8789" style="stroke: #000000; stroke-width: 2.5;" width="531.25" x="81.875" y="1376.3086"/><text fill="#000000" font-family="sans-serif" font-size="16.25" font-weight="bold" lengthAdjust="spacingAndGlyphs" textLength="26.25" x="100.625" y="1394.4275">par</text><polygon fill="#A80036" points="534.375,1422.1875,546.875,1427.1875,534.375,1432.1875,539.375,1427.1875" style="stroke: #A80036; stroke-width: 1.25;"/><line style="stroke: #A80036; stroke-width: 1.25;" x1="135" x2="541.875" y1="1427.1875" y2="1427.1875"/><text fill="#000000" font-family="sans-serif" font-size="16.25" lengthAdjust="spacingAndGlyphs" textLength="148.75" x="143.75" y="1421.1169">writeProperty: "num"</text><polygon fill="#A80036" points="13.75,1457.1875,1.25,1462.1875,13.75,1467.1875,8.75,1462.1875" style="stroke: #A80036; stroke-width: 1.25;"/><line style="stroke: #A80036; stroke-width: 1.25;" x1="6.25" x2="127.5" y1="1462.1875" y2="1462.1875"/><!--MD5=[57f387e480bce7711527ace25e0f5bac]
@startuml topexample
[->"Agent": top:example()
activate "Agent"

group strict
    par
        "Agent" -> "VirtualCoffeeMachine" : readProperty: "waterStatus"
        activate "VirtualCoffeeMachine"
        "VirtualCoffeeMachine" - -> "Agent" : response
        deactivate "VirtualCoffeeMachine"
    end
    par
        "Agent" -> "TestThing" : writeProperty: "string"
    end
end
loop 3x
    group strict
        par
            "Agent" -> "VirtualCoffeeMachine" : readProperty: "waterStatus"
            activate "VirtualCoffeeMachine"
            "VirtualCoffeeMachine" - -> "Agent" : response
            deactivate "VirtualCoffeeMachine"
        end
        par
            "Agent" -> "TestThing" : writeProperty: "string"
        end
    end
end
alt variable unknown
    group strict
        par
            "Agent" -> "VirtualCoffeeMachine" : subscribeEvent: "maintenance"
            activate "VirtualCoffeeMachine"
            "VirtualCoffeeMachine" - -> "Agent" : confirmation
            "VirtualCoffeeMachine" ->> "Agent" : data-pushed
        end
        par
            "Agent" -> "TestThing" : writeProperty: "int"
        end
    end
else else
    group strict
        par
            "Agent" -> "VirtualCoffeeMachine" : subscribeEvent: "error"
            activate "VirtualCoffeeMachine"
            "VirtualCoffeeMachine" - -> "Agent" : confirmation
            "VirtualCoffeeMachine" ->> "Agent" : data-pushed
        end
        par
            "Agent" -> "TestThing" : writeProperty: "bool"
        end
    end
end
group strict
    par
        "Agent" -> "VirtualCoffeeMachine" : readProperty: "coffeeStatus"
        activate "VirtualCoffeeMachine"
        "VirtualCoffeeMachine" - -> "Agent" : response
        deactivate "VirtualCoffeeMachine"
    end
    par
        "Agent" -> "TestThing" : writeProperty: "num"
    end
end
 
[<-"Agent"
deactivate "Agent"
@enduml

PlantUML version 1.2020.19(Mon Oct 12 17:10:01 CEST 2020)
(GPL source distribution)
Java Runtime: OpenJDK Runtime Environment
JVM: OpenJDK 64-Bit Server VM
Default Encoding: Cp1252
Language: es
Country: ES
--></g></svg>