<?xml version="1.0" encoding="UTF-8" standalone="no"?><svg xmlns="http://www.w3.org/2000/svg" xmlns:xlink="http://www.w3.org/1999/xlink" contentScriptType="application/ecmascript" contentStyleType="text/css" height="1502.5px" preserveAspectRatio="none" style="width:468px;height:1502px;" version="1.1" viewBox="0 0 468 1502" width="468.75px" zoomAndPan="magnify"><defs><filter height="300%" id="f1e3y2ahezcl4s" width="300%" x="-1" y="-1"><feGaussianBlur result="blurOut" stdDeviation="2.5"/><feColorMatrix in="blurOut" result="blurOut2" type="matrix" values="0 0 0 0 0 0 0 0 0 0 0 0 0 0 0 0 0 0 .4 0"/><feOffset dx="5.0" dy="5.0" in="blurOut2" result="blurOut3"/><feBlend in="SourceGraphic" in2="blurOut3" mode="normal"/></filter></defs><g><rect fill="#FFFFFF" filter="url(#f1e3y2ahezcl4s)" height="1331.7969" style="stroke: #A80036; stroke-width: 1.25;" width="12.5" x="122.5" y="92.4512"/><rect fill="#FFFFFF" filter="url(#f1e3y2ahezcl4s)" height="37.9395" style="stroke: #A80036; stroke-width: 1.25;" width="12.5" x="343.75" y="193.7695"/><rect fill="#FFFFFF" filter="url(#f1e3y2ahezcl4s)" height="37.9395" style="stroke: #A80036; stroke-width: 1.25;" width="12.5" x="343.75" y="460.5957"/><rect fill="#FFFFFF" filter="url(#f1e3y2ahezcl4s)" height="37.9395" style="stroke: #A80036; stroke-width: 1.25;" width="12.5" x="343.75" y="727.4219"/><rect fill="#FFFFFF" filter="url(#f1e3y2ahezcl4s)" height="37.9395" style="stroke: #A80036; stroke-width: 1.25;" width="12.5" x="343.75" y="971.3086"/><rect fill="#FFFFFF" filter="url(#f1e3y2ahezcl4s)" height="209.2578" style="stroke: #A80036; stroke-width: 1.25;" width="12.5" x="343.75" y="1226.2402"/><rect fill="#FFFFFF" filter="url(#f1e3y2ahezcl4s)" height="217.6367" style="stroke: #000000; stroke-width: 2.5;" width="356.875" x="69.375" y="111.2012"/><rect fill="#FFFFFF" filter="url(#f1e3y2ahezcl4s)" height="98.8184" style="stroke: #000000; stroke-width: 2.5;" width="331.875" x="81.875" y="142.8906"/><rect fill="#FFFFFF" filter="url(#f1e3y2ahezcl4s)" height="60.8789" style="stroke: #000000; stroke-width: 2.5;" width="331.875" x="81.875" y="259.209"/><rect fill="#FFFFFF" filter="url(#f1e3y2ahezcl4s)" height="1061.6602" style="stroke: #000000; stroke-width: 2.5;" width="406.875" x="44.375" y="346.3379"/><rect fill="#FFFFFF" filter="url(#f1e3y2ahezcl4s)" height="217.6367" style="stroke: #000000; stroke-width: 2.5;" width="356.875" x="69.375" y="378.0273"/><rect fill="#FFFFFF" filter="url(#f1e3y2ahezcl4s)" height="98.8184" style="stroke: #000000; stroke-width: 2.5;" width="331.875" x="81.875" y="409.7168"/><rect fill="#FFFFFF" filter="url(#f1e3y2ahezcl4s)" height="60.8789" style="stroke: #000000; stroke-width: 2.5;" width="331.875" x="81.875" y="526.0352"/><rect fill="#FFFFFF" filter="url(#f1e3y2ahezcl4s)" height="258.0762" style="stroke: #000000; stroke-width: 2.5;" width="381.875" x="56.875" y="613.1641"/><rect fill="#FFFFFF" filter="url(#f1e3y2ahezcl4s)" height="217.6367" style="stroke: #000000; stroke-width: 2.5;" width="356.875" x="69.375" y="644.8535"/><rect fill="#FFFFFF" filter="url(#f1e3y2ahezcl4s)" height="98.8184" style="stroke: #000000; stroke-width: 2.5;" width="331.875" x="81.875" y="676.543"/><rect fill="#FFFFFF" filter="url(#f1e3y2ahezcl4s)" height="60.8789" style="stroke: #000000; stroke-width: 2.5;" width="331.875" x="81.875" y="792.8613"/><rect fill="#FFFFFF" filter="url(#f1e3y2ahezcl4s)" height="217.6367" style="stroke: #000000; stroke-width: 2.5;" width="356.875" x="69.375" y="888.7402"/><rect fill="#FFFFFF" filter="url(#f1e3y2ahezcl4s)" height="98.8184" style="stroke: #000000; stroke-width: 2.5;" width="331.875" x="81.875" y="920.4297"/><rect fill="#FFFFFF" filter="url(#f1e3y2ahezcl4s)" height="60.8789" style="stroke: #000000; stroke-width: 2.5;" width="331.875" x="81.875" y="1036.748"/><rect fill="#FFFFFF" height="292.8711" style="stroke: none; stroke-width: 1.25;" width="406.875" x="44.375" y="1115.127"/><rect fill="#FFFFFF" filter="url(#f1e3y2ahezcl4s)" height="255.5762" style="stroke: #000000; stroke-width: 2.5;" width="356.875" x="69.375" y="1143.6719"/><rect fill="#FFFFFF" filter="url(#f1e3y2ahezcl4s)" height="136.7578" style="stroke: #000000; stroke-width: 2.5;" width="331.875" x="81.875" y="1175.3613"/><rect fill="#FFFFFF" filter="url(#f1e3y2ahezcl4s)" height="60.8789" style="stroke: #000000; stroke-width: 2.5;" width="331.875" x="81.875" y="1329.6191"/><line style="stroke: #A80036; stroke-width: 1.25; stroke-dasharray: 5.0,5.0;" x1="128.125" x2="128.125" y1="52.0117" y2="1446.748"/><line style="stroke: #A80036; stroke-width: 1.25; stroke-dasharray: 5.0,5.0;" x1="350" x2="350" y1="52.0117" y2="1446.748"/><rect fill="#FEFECE" filter="url(#f1e3y2ahezcl4s)" height="39.5117" style="stroke: #A80036; stroke-width: 1.875;" width="63.75" x="94.375" y="6.25"/><text fill="#000000" font-family="sans-serif" font-size="17.5" lengthAdjust="spacingAndGlyphs" textLength="46.25" x="103.125" y="33.1665">Agent</text><rect fill="#FEFECE" filter="url(#f1e3y2ahezcl4s)" height="39.5117" style="stroke: #A80036; stroke-width: 1.875;" width="63.75" x="94.375" y="1445.498"/><text fill="#000000" font-family="sans-serif" font-size="17.5" lengthAdjust="spacingAndGlyphs" textLength="46.25" x="103.125" y="1472.4146">Agent</text><rect fill="#FEFECE" filter="url(#f1e3y2ahezcl4s)" height="39.5117" style="stroke: #A80036; stroke-width: 1.875;" width="97.5" x="298.75" y="6.25"/><text fill="#000000" font-family="sans-serif" font-size="17.5" lengthAdjust="spacingAndGlyphs" textLength="80" x="307.5" y="33.1665">TestThing</text><rect fill="#FEFECE" filter="url(#f1e3y2ahezcl4s)" height="39.5117" style="stroke: #A80036; stroke-width: 1.875;" width="97.5" x="298.75" y="1445.498"/><text fill="#000000" font-family="sans-serif" font-size="17.5" lengthAdjust="spacingAndGlyphs" textLength="80" x="307.5" y="1472.4146">TestThing</text><rect fill="#FFFFFF" filter="url(#f1e3y2ahezcl4s)" height="1331.7969" style="stroke: #A80036; stroke-width: 1.25;" width="12.5" x="122.5" y="92.4512"/><rect fill="#FFFFFF" filter="url(#f1e3y2ahezcl4s)" height="37.9395" style="stroke: #A80036; stroke-width: 1.25;" width="12.5" x="343.75" y="193.7695"/><rect fill="#FFFFFF" filter="url(#f1e3y2ahezcl4s)" height="37.9395" style="stroke: #A80036; stroke-width: 1.25;" width="12.5" x="343.75" y="460.5957"/><rect fill="#FFFFFF" filter="url(#f1e3y2ahezcl4s)" height="37.9395" style="stroke: #A80036; stroke-width: 1.25;" width="12.5" x="343.75" y="727.4219"/><rect fill="#FFFFFF" filter="url(#f1e3y2ahezcl4s)" height="37.9395" style="stroke: #A80036; stroke-width: 1.25;" width="12.5" x="343.75" y="971.3086"/><rect fill="#FFFFFF" filter="url(#f1e3y2ahezcl4s)" height="209.2578" style="stroke: #A80036; stroke-width: 1.25;" width="12.5" x="343.75" y="1226.2402"/><polygon fill="#A80036" points="107.5,87.4512,120,92.4512,107.5,97.4512,112.5,92.4512" style="stroke: #A80036; stroke-width: 1.25;"/><line style="stroke: #A80036; stroke-width: 1.25;" x1="0" x2="115" y1="92.4512" y2="92.4512"/><text fill="#000000" font-family="sans-serif" font-size="16.25" lengthAdjust="spacingAndGlyphs" textLength="98.75" x="8.75" y="86.3806">top:example()</text><path d="M69.375,111.2012 L163.125,111.2012 L163.125,121.2012 L150.625,133.7012 L69.375,133.7012 L69.375,111.2012 " fill="#EEEEEE" style="stroke: #000000; stroke-width: 1.25;"/><rect fill="none" height="217.6367" style="stroke: #000000; stroke-width: 2.5;" width="356.875" x="69.375" y="111.2012"/><text fill="#000000" font-family="sans-serif" font-size="16.25" font-weight="bold" lengthAdjust="spacingAndGlyphs" textLength="37.5" x="88.125" y="129.3201">strict</text><path d="M81.875,142.8906 L164.375,142.8906 L164.375,152.8906 L151.875,165.3906 L81.875,165.3906 L81.875,142.8906 " fill="#EEEEEE" style="stroke: #000000; stroke-width: 1.25;"/><rect fill="none" height="98.8184" style="stroke: #000000; stroke-width: 2.5;" width="331.875" x="81.875" y="142.8906"/><text fill="#000000" font-family="sans-serif" font-size="16.25" font-weight="bold" lengthAdjust="spacingAndGlyphs" textLength="26.25" x="100.625" y="161.0095">par</text><polygon fill="#A80036" points="328.75,188.7695,341.25,193.7695,328.75,198.7695,333.75,193.7695" style="stroke: #A80036; stroke-width: 1.25;"/><line style="stroke: #A80036; stroke-width: 1.25;" x1="135" x2="336.25" y1="193.7695" y2="193.7695"/><text fill="#000000" font-family="sans-serif" font-size="16.25" lengthAdjust="spacingAndGlyphs" textLength="145" x="143.75" y="187.699">readProperty: "bool"</text><polygon fill="#A80036" points="148.75,226.709,136.25,231.709,148.75,236.709,143.75,231.709" style="stroke: #A80036; stroke-width: 1.25;"/><line style="stroke: #A80036; stroke-width: 1.25; stroke-dasharray: 2.0,2.0;" x1="141.25" x2="348.75" y1="231.709" y2="231.709"/><text fill="#000000" font-family="sans-serif" font-size="16.25" lengthAdjust="spacingAndGlyphs" textLength="66.25" x="156.25" y="225.6384">response</text><path d="M81.875,259.209 L164.375,259.209 L164.375,269.209 L151.875,281.709 L81.875,281.709 L81.875,259.209 " fill="#EEEEEE" style="stroke: #000000; stroke-width: 1.25;"/><rect fill="none" height="60.8789" style="stroke: #000000; stroke-width: 2.5;" width="331.875" x="81.875" y="259.209"/><text fill="#000000" font-family="sans-serif" font-size="16.25" font-weight="bold" lengthAdjust="spacingAndGlyphs" textLength="26.25" x="100.625" y="277.3279">par</text><polygon fill="#A80036" points="335,305.0879,347.5,310.0879,335,315.0879,340,310.0879" style="stroke: #A80036; stroke-width: 1.25;"/><line style="stroke: #A80036; stroke-width: 1.25;" x1="135" x2="342.5" y1="310.0879" y2="310.0879"/><text fill="#000000" font-family="sans-serif" font-size="16.25" lengthAdjust="spacingAndGlyphs" textLength="148.75" x="143.75" y="304.0173">writeProperty: "num"</text><path d="M44.375,346.3379 L120.625,346.3379 L120.625,356.3379 L108.125,368.8379 L44.375,368.8379 L44.375,346.3379 " fill="#EEEEEE" style="stroke: #000000; stroke-width: 1.25;"/><rect fill="none" height="1061.6602" style="stroke: #000000; stroke-width: 2.5;" width="406.875" x="44.375" y="346.3379"/><text fill="#000000" font-family="sans-serif" font-size="16.25" font-weight="bold" lengthAdjust="spacingAndGlyphs" textLength="20" x="63.125" y="364.4568">alt</text><text fill="#000000" font-family="sans-serif" font-size="13.75" font-weight="bold" lengthAdjust="spacingAndGlyphs" textLength="132.5" x="139.375" y="363.1116">[variable unknown]</text><path d="M69.375,378.0273 L163.125,378.0273 L163.125,388.0273 L150.625,400.5273 L69.375,400.5273 L69.375,378.0273 " fill="#EEEEEE" style="stroke: #000000; stroke-width: 1.25;"/><rect fill="none" height="217.6367" style="stroke: #000000; stroke-width: 2.5;" width="356.875" x="69.375" y="378.0273"/><text fill="#000000" font-family="sans-serif" font-size="16.25" font-weight="bold" lengthAdjust="spacingAndGlyphs" textLength="37.5" x="88.125" y="396.1462">strict</text><path d="M81.875,409.7168 L164.375,409.7168 L164.375,419.7168 L151.875,432.2168 L81.875,432.2168 L81.875,409.7168 " fill="#EEEEEE" style="stroke: #000000; stroke-width: 1.25;"/><rect fill="none" height="98.8184" style="stroke: #000000; stroke-width: 2.5;" width="331.875" x="81.875" y="409.7168"/><text fill="#000000" font-family="sans-serif" font-size="16.25" font-weight="bold" lengthAdjust="spacingAndGlyphs" textLength="26.25" x="100.625" y="427.8357">par</text><polygon fill="#A80036" points="328.75,455.5957,341.25,460.5957,328.75,465.5957,333.75,460.5957" style="stroke: #A80036; stroke-width: 1.25;"/><line style="stroke: #A80036; stroke-width: 1.25;" x1="135" x2="336.25" y1="460.5957" y2="460.5957"/><text fill="#000000" font-family="sans-serif" font-size="16.25" lengthAdjust="spacingAndGlyphs" textLength="132.5" x="143.75" y="454.5251">readProperty: "int"</text><polygon fill="#A80036" points="148.75,493.5352,136.25,498.5352,148.75,503.5352,143.75,498.5352" style="stroke: #A80036; stroke-width: 1.25;"/><line style="stroke: #A80036; stroke-width: 1.25; stroke-dasharray: 2.0,2.0;" x1="141.25" x2="348.75" y1="498.5352" y2="498.5352"/><text fill="#000000" font-family="sans-serif" font-size="16.25" lengthAdjust="spacingAndGlyphs" textLength="66.25" x="156.25" y="492.4646">response</text><path d="M81.875,526.0352 L164.375,526.0352 L164.375,536.0352 L151.875,548.5352 L81.875,548.5352 L81.875,526.0352 " fill="#EEEEEE" style="stroke: #000000; stroke-width: 1.25;"/><rect fill="none" height="60.8789" style="stroke: #000000; stroke-width: 2.5;" width="331.875" x="81.875" y="526.0352"/><text fill="#000000" font-family="sans-serif" font-size="16.25" font-weight="bold" lengthAdjust="spacingAndGlyphs" textLength="26.25" x="100.625" y="544.1541">par</text><polygon fill="#A80036" points="335,571.9141,347.5,576.9141,335,581.9141,340,576.9141" style="stroke: #A80036; stroke-width: 1.25;"/><line style="stroke: #A80036; stroke-width: 1.25;" x1="135" x2="342.5" y1="576.9141" y2="576.9141"/><text fill="#000000" font-family="sans-serif" font-size="16.25" lengthAdjust="spacingAndGlyphs" textLength="176.25" x="143.75" y="570.8435">invokeAction: "int-string"</text><path d="M56.875,613.1641 L148.125,613.1641 L148.125,623.1641 L135.625,635.6641 L56.875,635.6641 L56.875,613.1641 " fill="#EEEEEE" style="stroke: #000000; stroke-width: 1.25;"/><rect fill="none" height="258.0762" style="stroke: #000000; stroke-width: 2.5;" width="381.875" x="56.875" y="613.1641"/><text fill="#000000" font-family="sans-serif" font-size="16.25" font-weight="bold" lengthAdjust="spacingAndGlyphs" textLength="35" x="75.625" y="631.283">loop</text><text fill="#000000" font-family="sans-serif" font-size="13.75" font-weight="bold" lengthAdjust="spacingAndGlyphs" textLength="25" x="166.875" y="629.9377">[3x]</text><path d="M69.375,644.8535 L163.125,644.8535 L163.125,654.8535 L150.625,667.3535 L69.375,667.3535 L69.375,644.8535 " fill="#EEEEEE" style="stroke: #000000; stroke-width: 1.25;"/><rect fill="none" height="217.6367" style="stroke: #000000; stroke-width: 2.5;" width="356.875" x="69.375" y="644.8535"/><text fill="#000000" font-family="sans-serif" font-size="16.25" font-weight="bold" lengthAdjust="spacingAndGlyphs" textLength="37.5" x="88.125" y="662.9724">strict</text><path d="M81.875,676.543 L164.375,676.543 L164.375,686.543 L151.875,699.043 L81.875,699.043 L81.875,676.543 " fill="#EEEEEE" style="stroke: #000000; stroke-width: 1.25;"/><rect fill="none" height="98.8184" style="stroke: #000000; stroke-width: 2.5;" width="331.875" x="81.875" y="676.543"/><text fill="#000000" font-family="sans-serif" font-size="16.25" font-weight="bold" lengthAdjust="spacingAndGlyphs" textLength="26.25" x="100.625" y="694.6619">par</text><polygon fill="#A80036" points="328.75,722.4219,341.25,727.4219,328.75,732.4219,333.75,727.4219" style="stroke: #A80036; stroke-width: 1.25;"/><line style="stroke: #A80036; stroke-width: 1.25;" x1="135" x2="336.25" y1="727.4219" y2="727.4219"/><text fill="#000000" font-family="sans-serif" font-size="16.25" lengthAdjust="spacingAndGlyphs" textLength="132.5" x="143.75" y="721.3513">readProperty: "int"</text><polygon fill="#A80036" points="148.75,760.3613,136.25,765.3613,148.75,770.3613,143.75,765.3613" style="stroke: #A80036; stroke-width: 1.25;"/><line style="stroke: #A80036; stroke-width: 1.25; stroke-dasharray: 2.0,2.0;" x1="141.25" x2="348.75" y1="765.3613" y2="765.3613"/><text fill="#000000" font-family="sans-serif" font-size="16.25" lengthAdjust="spacingAndGlyphs" textLength="66.25" x="156.25" y="759.2908">response</text><path d="M81.875,792.8613 L164.375,792.8613 L164.375,802.8613 L151.875,815.3613 L81.875,815.3613 L81.875,792.8613 " fill="#EEEEEE" style="stroke: #000000; stroke-width: 1.25;"/><rect fill="none" height="60.8789" style="stroke: #000000; stroke-width: 2.5;" width="331.875" x="81.875" y="792.8613"/><text fill="#000000" font-family="sans-serif" font-size="16.25" font-weight="bold" lengthAdjust="spacingAndGlyphs" textLength="26.25" x="100.625" y="810.9802">par</text><polygon fill="#A80036" points="335,838.7402,347.5,843.7402,335,848.7402,340,843.7402" style="stroke: #A80036; stroke-width: 1.25;"/><line style="stroke: #A80036; stroke-width: 1.25;" x1="135" x2="342.5" y1="843.7402" y2="843.7402"/><text fill="#000000" font-family="sans-serif" font-size="16.25" lengthAdjust="spacingAndGlyphs" textLength="176.25" x="143.75" y="837.6697">invokeAction: "int-string"</text><path d="M69.375,888.7402 L163.125,888.7402 L163.125,898.7402 L150.625,911.2402 L69.375,911.2402 L69.375,888.7402 " fill="#EEEEEE" style="stroke: #000000; stroke-width: 1.25;"/><rect fill="none" height="217.6367" style="stroke: #000000; stroke-width: 2.5;" width="356.875" x="69.375" y="888.7402"/><text fill="#000000" font-family="sans-serif" font-size="16.25" font-weight="bold" lengthAdjust="spacingAndGlyphs" textLength="37.5" x="88.125" y="906.8591">strict</text><path d="M81.875,920.4297 L164.375,920.4297 L164.375,930.4297 L151.875,942.9297 L81.875,942.9297 L81.875,920.4297 " fill="#EEEEEE" style="stroke: #000000; stroke-width: 1.25;"/><rect fill="none" height="98.8184" style="stroke: #000000; stroke-width: 2.5;" width="331.875" x="81.875" y="920.4297"/><text fill="#000000" font-family="sans-serif" font-size="16.25" font-weight="bold" lengthAdjust="spacingAndGlyphs" textLength="26.25" x="100.625" y="938.5486">par</text><polygon fill="#A80036" points="328.75,966.3086,341.25,971.3086,328.75,976.3086,333.75,971.3086" style="stroke: #A80036; stroke-width: 1.25;"/><line style="stroke: #A80036; stroke-width: 1.25;" x1="135" x2="336.25" y1="971.3086" y2="971.3086"/><text fill="#000000" font-family="sans-serif" font-size="16.25" lengthAdjust="spacingAndGlyphs" textLength="158.75" x="143.75" y="965.238">readProperty: "object"</text><polygon fill="#A80036" points="148.75,1004.248,136.25,1009.248,148.75,1014.248,143.75,1009.248" style="stroke: #A80036; stroke-width: 1.25;"/><line style="stroke: #A80036; stroke-width: 1.25; stroke-dasharray: 2.0,2.0;" x1="141.25" x2="348.75" y1="1009.248" y2="1009.248"/><text fill="#000000" font-family="sans-serif" font-size="16.25" lengthAdjust="spacingAndGlyphs" textLength="66.25" x="156.25" y="1003.1775">response</text><path d="M81.875,1036.748 L164.375,1036.748 L164.375,1046.748 L151.875,1059.248 L81.875,1059.248 L81.875,1036.748 " fill="#EEEEEE" style="stroke: #000000; stroke-width: 1.25;"/><rect fill="none" height="60.8789" style="stroke: #000000; stroke-width: 2.5;" width="331.875" x="81.875" y="1036.748"/><text fill="#000000" font-family="sans-serif" font-size="16.25" font-weight="bold" lengthAdjust="spacingAndGlyphs" textLength="26.25" x="100.625" y="1054.8669">par</text><polygon fill="#A80036" points="335,1082.627,347.5,1087.627,335,1092.627,340,1087.627" style="stroke: #A80036; stroke-width: 1.25;"/><line style="stroke: #A80036; stroke-width: 1.25;" x1="135" x2="342.5" y1="1087.627" y2="1087.627"/><text fill="#000000" font-family="sans-serif" font-size="16.25" lengthAdjust="spacingAndGlyphs" textLength="167.5" x="143.75" y="1081.5564">invokeAction: "obj-void"</text><line style="stroke: #000000; stroke-width: 1.25; stroke-dasharray: 2.0,2.0;" x1="44.375" x2="451.25" y1="1116.377" y2="1116.377"/><text fill="#000000" font-family="sans-serif" font-size="13.75" font-weight="bold" lengthAdjust="spacingAndGlyphs" textLength="40" x="50.625" y="1130.6506">[else]</text><path d="M69.375,1143.6719 L163.125,1143.6719 L163.125,1153.6719 L150.625,1166.1719 L69.375,1166.1719 L69.375,1143.6719 " fill="#EEEEEE" style="stroke: #000000; stroke-width: 1.25;"/><rect fill="none" height="255.5762" style="stroke: #000000; stroke-width: 2.5;" width="356.875" x="69.375" y="1143.6719"/><text fill="#000000" font-family="sans-serif" font-size="16.25" font-weight="bold" lengthAdjust="spacingAndGlyphs" textLength="37.5" x="88.125" y="1161.7908">strict</text><path d="M81.875,1175.3613 L164.375,1175.3613 L164.375,1185.3613 L151.875,1197.8613 L81.875,1197.8613 L81.875,1175.3613 " fill="#EEEEEE" style="stroke: #000000; stroke-width: 1.25;"/><rect fill="none" height="136.7578" style="stroke: #000000; stroke-width: 2.5;" width="331.875" x="81.875" y="1175.3613"/><text fill="#000000" font-family="sans-serif" font-size="16.25" font-weight="bold" lengthAdjust="spacingAndGlyphs" textLength="26.25" x="100.625" y="1193.4802">par</text><polygon fill="#A80036" points="328.75,1221.2402,341.25,1226.2402,328.75,1231.2402,333.75,1226.2402" style="stroke: #A80036; stroke-width: 1.25;"/><line style="stroke: #A80036; stroke-width: 1.25;" x1="135" x2="336.25" y1="1226.2402" y2="1226.2402"/><text fill="#000000" font-family="sans-serif" font-size="16.25" lengthAdjust="spacingAndGlyphs" textLength="185" x="143.75" y="1220.1697">subscribeEvent: "on-bool"</text><polygon fill="#A80036" points="148.75,1259.1797,136.25,1264.1797,148.75,1269.1797,143.75,1264.1797" style="stroke: #A80036; stroke-width: 1.25;"/><line style="stroke: #A80036; stroke-width: 1.25; stroke-dasharray: 2.0,2.0;" x1="141.25" x2="342.5" y1="1264.1797" y2="1264.1797"/><text fill="#000000" font-family="sans-serif" font-size="16.25" lengthAdjust="spacingAndGlyphs" textLength="87.5" x="156.25" y="1258.1091">confirmation</text><line style="stroke: #A80036; stroke-width: 1.25;" x1="135" x2="147.5" y1="1302.1191" y2="1297.1191"/><line style="stroke: #A80036; stroke-width: 1.25;" x1="135" x2="147.5" y1="1302.1191" y2="1307.1191"/><line style="stroke: #A80036; stroke-width: 1.25;" x1="135" x2="342.5" y1="1302.1191" y2="1302.1191"/><text fill="#000000" font-family="sans-serif" font-size="16.25" lengthAdjust="spacingAndGlyphs" textLength="88.75" x="156.25" y="1296.0486">data-pushed</text><path d="M81.875,1329.6191 L164.375,1329.6191 L164.375,1339.6191 L151.875,1352.1191 L81.875,1352.1191 L81.875,1329.6191 " fill="#EEEEEE" style="stroke: #000000; stroke-width: 1.25;"/><rect fill="none" height="60.8789" style="stroke: #000000; stroke-width: 2.5;" width="331.875" x="81.875" y="1329.6191"/><text fill="#000000" font-family="sans-serif" font-size="16.25" font-weight="bold" lengthAdjust="spacingAndGlyphs" textLength="26.25" x="100.625" y="1347.738">par</text><polygon fill="#A80036" points="328.75,1375.498,341.25,1380.498,328.75,1385.498,333.75,1380.498" style="stroke: #A80036; stroke-width: 1.25;"/><line style="stroke: #A80036; stroke-width: 1.25;" x1="135" x2="336.25" y1="1380.498" y2="1380.498"/><text fill="#000000" font-family="sans-serif" font-size="16.25" lengthAdjust="spacingAndGlyphs" textLength="161.25" x="143.75" y="1374.4275">writeProperty: "object"</text><polygon fill="#A80036" points="13.75,1419.248,1.25,1424.248,13.75,1429.248,8.75,1424.248" style="stroke: #A80036; stroke-width: 1.25;"/><line style="stroke: #A80036; stroke-width: 1.25;" x1="6.25" x2="127.5" y1="1424.248" y2="1424.248"/><!--MD5=[d84a29c3ab284bbc6afb5e7b7a4a0a73]
@startuml topexample
[->"Agent": top:example()
activate "Agent"

group strict
    par
        "Agent" -> "TestThing" : readProperty: "bool"
        activate "TestThing"
        "TestThing" - -> "Agent" : response
        deactivate "TestThing"
    end
    par
        "Agent" -> "TestThing" : writeProperty: "num"
    end
end
alt variable unknown
    group strict
        par
            "Agent" -> "TestThing" : readProperty: "int"
            activate "TestThing"
            "TestThing" - -> "Agent" : response
            deactivate "TestThing"
        end
        par
            "Agent" -> "TestThing" : invokeAction: "int-string"
        end
    end
    loop 3x
        group strict
            par
                "Agent" -> "TestThing" : readProperty: "int"
                activate "TestThing"
                "TestThing" - -> "Agent" : response
                deactivate "TestThing"
            end
            par
                "Agent" -> "TestThing" : invokeAction: "int-string"
            end
        end
    end
    group strict
        par
            "Agent" -> "TestThing" : readProperty: "object"
            activate "TestThing"
            "TestThing" - -> "Agent" : response
            deactivate "TestThing"
        end
        par
            "Agent" -> "TestThing" : invokeAction: "obj-void"
        end
    end
else else
    group strict
        par
            "Agent" -> "TestThing" : subscribeEvent: "on-bool"
            activate "TestThing"
            "TestThing" - -> "Agent" : confirmation
            "TestThing" ->> "Agent" : data-pushed
        end
        par
            "Agent" -> "TestThing" : writeProperty: "object"
        end
    end
end
 
[<-"Agent"
deactivate "Agent"
@enduml

PlantUML version 1.2020.19(Mon Oct 12 17:10:01 CEST 2020)
(GPL source distribution)
Java Runtime: OpenJDK Runtime Environment
JVM: OpenJDK 64-Bit Server VM
Default Encoding: Cp1252
Language: es
Country: ES
--></g></svg>