<?xml version="1.0" encoding="UTF-8" standalone="no"?><svg xmlns="http://www.w3.org/2000/svg" xmlns:xlink="http://www.w3.org/1999/xlink" contentScriptType="application/ecmascript" contentStyleType="text/css" height="1266.25px" preserveAspectRatio="none" style="width:535px;height:1266px;" version="1.1" viewBox="0 0 535 1266" width="535px" zoomAndPan="magnify"><defs><filter height="300%" id="f1vzxqicwswvr3" width="300%" x="-1" y="-1"><feGaussianBlur result="blurOut" stdDeviation="2.5"/><feColorMatrix in="blurOut" result="blurOut2" type="matrix" values="0 0 0 0 0 0 0 0 0 0 0 0 0 0 0 0 0 0 .4 0"/><feOffset dx="5.0" dy="5.0" in="blurOut2" result="blurOut3"/><feBlend in="SourceGraphic" in2="blurOut3" mode="normal"/></filter></defs><g><rect fill="#FFFFFF" filter="url(#f1vzxqicwswvr3)" height="1096.6602" style="stroke: #A80036; stroke-width: 1.25;" width="12.5" x="122.5" y="92.4512"/><rect fill="#FFFFFF" filter="url(#f1vzxqicwswvr3)" height="974.9023" style="stroke: #A80036; stroke-width: 1.25;" width="12.5" x="366.25" y="225.459"/><rect fill="#FFFFFF" filter="url(#f1vzxqicwswvr3)" height="37.9395" style="stroke: #A80036; stroke-width: 1.25;" width="12.5" x="372.5" y="518.3301"/><rect fill="#FFFFFF" filter="url(#f1vzxqicwswvr3)" height="37.9395" style="stroke: #A80036; stroke-width: 1.25;" width="12.5" x="372.5" y="785.1563"/><rect fill="#FFFFFF" filter="url(#f1vzxqicwswvr3)" height="37.9395" style="stroke: #A80036; stroke-width: 1.25;" width="12.5" x="372.5" y="1037.793"/><rect fill="#FFFFFF" filter="url(#f1vzxqicwswvr3)" height="826.5234" style="stroke: #000000; stroke-width: 2.5;" width="473.75" x="44.375" y="111.2012"/><rect fill="#FFFFFF" filter="url(#f1vzxqicwswvr3)" height="255.5762" style="stroke: #000000; stroke-width: 2.5;" width="423.75" x="69.375" y="142.8906"/><rect fill="#FFFFFF" filter="url(#f1vzxqicwswvr3)" height="136.7578" style="stroke: #000000; stroke-width: 2.5;" width="398.75" x="81.875" y="174.5801"/><rect fill="#FFFFFF" filter="url(#f1vzxqicwswvr3)" height="60.8789" style="stroke: #000000; stroke-width: 2.5;" width="398.75" x="81.875" y="328.8379"/><rect fill="#FFFFFF" height="530.5078" style="stroke: none; stroke-width: 1.25;" width="473.75" x="44.375" y="407.2168"/><rect fill="#FFFFFF" filter="url(#f1vzxqicwswvr3)" height="217.6367" style="stroke: #000000; stroke-width: 2.5;" width="423.75" x="69.375" y="435.7617"/><rect fill="#FFFFFF" filter="url(#f1vzxqicwswvr3)" height="98.8184" style="stroke: #000000; stroke-width: 2.5;" width="398.75" x="81.875" y="467.4512"/><rect fill="#FFFFFF" filter="url(#f1vzxqicwswvr3)" height="60.8789" style="stroke: #000000; stroke-width: 2.5;" width="398.75" x="81.875" y="583.7695"/><rect fill="#FFFFFF" filter="url(#f1vzxqicwswvr3)" height="258.0762" style="stroke: #000000; stroke-width: 2.5;" width="448.75" x="56.875" y="670.8984"/><rect fill="#FFFFFF" filter="url(#f1vzxqicwswvr3)" height="217.6367" style="stroke: #000000; stroke-width: 2.5;" width="423.75" x="69.375" y="702.5879"/><rect fill="#FFFFFF" filter="url(#f1vzxqicwswvr3)" height="98.8184" style="stroke: #000000; stroke-width: 2.5;" width="398.75" x="81.875" y="734.2773"/><rect fill="#FFFFFF" filter="url(#f1vzxqicwswvr3)" height="60.8789" style="stroke: #000000; stroke-width: 2.5;" width="398.75" x="81.875" y="850.5957"/><rect fill="#FFFFFF" filter="url(#f1vzxqicwswvr3)" height="217.6367" style="stroke: #000000; stroke-width: 2.5;" width="423.75" x="69.375" y="955.2246"/><rect fill="#FFFFFF" filter="url(#f1vzxqicwswvr3)" height="98.8184" style="stroke: #000000; stroke-width: 2.5;" width="398.75" x="81.875" y="986.9141"/><rect fill="#FFFFFF" filter="url(#f1vzxqicwswvr3)" height="60.8789" style="stroke: #000000; stroke-width: 2.5;" width="398.75" x="81.875" y="1103.2324"/><line style="stroke: #A80036; stroke-width: 1.25; stroke-dasharray: 5.0,5.0;" x1="128.125" x2="128.125" y1="52.0117" y2="1211.6113"/><line style="stroke: #A80036; stroke-width: 1.25; stroke-dasharray: 5.0,5.0;" x1="371.875" x2="371.875" y1="52.0117" y2="1211.6113"/><rect fill="#FEFECE" filter="url(#f1vzxqicwswvr3)" height="39.5117" style="stroke: #A80036; stroke-width: 1.875;" width="63.75" x="94.375" y="6.25"/><text fill="#000000" font-family="sans-serif" font-size="17.5" lengthAdjust="spacingAndGlyphs" textLength="46.25" x="103.125" y="33.1665">Agent</text><rect fill="#FEFECE" filter="url(#f1vzxqicwswvr3)" height="39.5117" style="stroke: #A80036; stroke-width: 1.875;" width="63.75" x="94.375" y="1210.3613"/><text fill="#000000" font-family="sans-serif" font-size="17.5" lengthAdjust="spacingAndGlyphs" textLength="46.25" x="103.125" y="1237.2778">Agent</text><rect fill="#FEFECE" filter="url(#f1vzxqicwswvr3)" height="39.5117" style="stroke: #A80036; stroke-width: 1.875;" width="186.25" x="276.875" y="6.25"/><text fill="#000000" font-family="sans-serif" font-size="17.5" lengthAdjust="spacingAndGlyphs" textLength="168.75" x="285.625" y="33.1665">VirtualCoffeeMachine</text><rect fill="#FEFECE" filter="url(#f1vzxqicwswvr3)" height="39.5117" style="stroke: #A80036; stroke-width: 1.875;" width="186.25" x="276.875" y="1210.3613"/><text fill="#000000" font-family="sans-serif" font-size="17.5" lengthAdjust="spacingAndGlyphs" textLength="168.75" x="285.625" y="1237.2778">VirtualCoffeeMachine</text><rect fill="#FFFFFF" filter="url(#f1vzxqicwswvr3)" height="1096.6602" style="stroke: #A80036; stroke-width: 1.25;" width="12.5" x="122.5" y="92.4512"/><rect fill="#FFFFFF" filter="url(#f1vzxqicwswvr3)" height="974.9023" style="stroke: #A80036; stroke-width: 1.25;" width="12.5" x="366.25" y="225.459"/><rect fill="#FFFFFF" filter="url(#f1vzxqicwswvr3)" height="37.9395" style="stroke: #A80036; stroke-width: 1.25;" width="12.5" x="372.5" y="518.3301"/><rect fill="#FFFFFF" filter="url(#f1vzxqicwswvr3)" height="37.9395" style="stroke: #A80036; stroke-width: 1.25;" width="12.5" x="372.5" y="785.1563"/><rect fill="#FFFFFF" filter="url(#f1vzxqicwswvr3)" height="37.9395" style="stroke: #A80036; stroke-width: 1.25;" width="12.5" x="372.5" y="1037.793"/><polygon fill="#A80036" points="107.5,87.4512,120,92.4512,107.5,97.4512,112.5,92.4512" style="stroke: #A80036; stroke-width: 1.25;"/><line style="stroke: #A80036; stroke-width: 1.25;" x1="0" x2="115" y1="92.4512" y2="92.4512"/><text fill="#000000" font-family="sans-serif" font-size="16.25" lengthAdjust="spacingAndGlyphs" textLength="98.75" x="8.75" y="86.3806">top:example()</text><path d="M44.375,111.2012 L120.625,111.2012 L120.625,121.2012 L108.125,133.7012 L44.375,133.7012 L44.375,111.2012 " fill="#EEEEEE" style="stroke: #000000; stroke-width: 1.25;"/><rect fill="none" height="826.5234" style="stroke: #000000; stroke-width: 2.5;" width="473.75" x="44.375" y="111.2012"/><text fill="#000000" font-family="sans-serif" font-size="16.25" font-weight="bold" lengthAdjust="spacingAndGlyphs" textLength="20" x="63.125" y="129.3201">alt</text><text fill="#000000" font-family="sans-serif" font-size="13.75" font-weight="bold" lengthAdjust="spacingAndGlyphs" textLength="132.5" x="139.375" y="127.9749">[variable unknown]</text><path d="M69.375,142.8906 L163.125,142.8906 L163.125,152.8906 L150.625,165.3906 L69.375,165.3906 L69.375,142.8906 " fill="#EEEEEE" style="stroke: #000000; stroke-width: 1.25;"/><rect fill="none" height="255.5762" style="stroke: #000000; stroke-width: 2.5;" width="423.75" x="69.375" y="142.8906"/><text fill="#000000" font-family="sans-serif" font-size="16.25" font-weight="bold" lengthAdjust="spacingAndGlyphs" textLength="37.5" x="88.125" y="161.0095">strict</text><path d="M81.875,174.5801 L164.375,174.5801 L164.375,184.5801 L151.875,197.0801 L81.875,197.0801 L81.875,174.5801 " fill="#EEEEEE" style="stroke: #000000; stroke-width: 1.25;"/><rect fill="none" height="136.7578" style="stroke: #000000; stroke-width: 2.5;" width="398.75" x="81.875" y="174.5801"/><text fill="#000000" font-family="sans-serif" font-size="16.25" font-weight="bold" lengthAdjust="spacingAndGlyphs" textLength="26.25" x="100.625" y="192.699">par</text><polygon fill="#A80036" points="351.25,220.459,363.75,225.459,351.25,230.459,356.25,225.459" style="stroke: #A80036; stroke-width: 1.25;"/><line style="stroke: #A80036; stroke-width: 1.25;" x1="135" x2="358.75" y1="225.459" y2="225.459"/><text fill="#000000" font-family="sans-serif" font-size="16.25" lengthAdjust="spacingAndGlyphs" textLength="165" x="143.75" y="219.3884">subscribeEvent: "error"</text><polygon fill="#A80036" points="148.75,258.3984,136.25,263.3984,148.75,268.3984,143.75,263.3984" style="stroke: #A80036; stroke-width: 1.25;"/><line style="stroke: #A80036; stroke-width: 1.25; stroke-dasharray: 2.0,2.0;" x1="141.25" x2="365" y1="263.3984" y2="263.3984"/><text fill="#000000" font-family="sans-serif" font-size="16.25" lengthAdjust="spacingAndGlyphs" textLength="87.5" x="156.25" y="257.3279">confirmation</text><line style="stroke: #A80036; stroke-width: 1.25;" x1="135" x2="147.5" y1="301.3379" y2="296.3379"/><line style="stroke: #A80036; stroke-width: 1.25;" x1="135" x2="147.5" y1="301.3379" y2="306.3379"/><line style="stroke: #A80036; stroke-width: 1.25;" x1="135" x2="365" y1="301.3379" y2="301.3379"/><text fill="#000000" font-family="sans-serif" font-size="16.25" lengthAdjust="spacingAndGlyphs" textLength="88.75" x="156.25" y="295.2673">data-pushed</text><path d="M81.875,328.8379 L164.375,328.8379 L164.375,338.8379 L151.875,351.3379 L81.875,351.3379 L81.875,328.8379 " fill="#EEEEEE" style="stroke: #000000; stroke-width: 1.25;"/><rect fill="none" height="60.8789" style="stroke: #000000; stroke-width: 2.5;" width="398.75" x="81.875" y="328.8379"/><text fill="#000000" font-family="sans-serif" font-size="16.25" font-weight="bold" lengthAdjust="spacingAndGlyphs" textLength="26.25" x="100.625" y="346.9568">par</text><polygon fill="#A80036" points="351.25,374.7168,363.75,379.7168,351.25,384.7168,356.25,379.7168" style="stroke: #A80036; stroke-width: 1.25;"/><line style="stroke: #A80036; stroke-width: 1.25;" x1="135" x2="358.75" y1="379.7168" y2="379.7168"/><text fill="#000000" font-family="sans-serif" font-size="16.25" lengthAdjust="spacingAndGlyphs" textLength="150" x="143.75" y="373.6462">invokeAction: "abort"</text><line style="stroke: #000000; stroke-width: 1.25; stroke-dasharray: 2.0,2.0;" x1="44.375" x2="518.125" y1="408.4668" y2="408.4668"/><text fill="#000000" font-family="sans-serif" font-size="13.75" font-weight="bold" lengthAdjust="spacingAndGlyphs" textLength="40" x="50.625" y="422.7405">[else]</text><path d="M69.375,435.7617 L163.125,435.7617 L163.125,445.7617 L150.625,458.2617 L69.375,458.2617 L69.375,435.7617 " fill="#EEEEEE" style="stroke: #000000; stroke-width: 1.25;"/><rect fill="none" height="217.6367" style="stroke: #000000; stroke-width: 2.5;" width="423.75" x="69.375" y="435.7617"/><text fill="#000000" font-family="sans-serif" font-size="16.25" font-weight="bold" lengthAdjust="spacingAndGlyphs" textLength="37.5" x="88.125" y="453.8806">strict</text><path d="M81.875,467.4512 L164.375,467.4512 L164.375,477.4512 L151.875,489.9512 L81.875,489.9512 L81.875,467.4512 " fill="#EEEEEE" style="stroke: #000000; stroke-width: 1.25;"/><rect fill="none" height="98.8184" style="stroke: #000000; stroke-width: 2.5;" width="398.75" x="81.875" y="467.4512"/><text fill="#000000" font-family="sans-serif" font-size="16.25" font-weight="bold" lengthAdjust="spacingAndGlyphs" textLength="26.25" x="100.625" y="485.5701">par</text><polygon fill="#A80036" points="357.5,513.3301,370,518.3301,357.5,523.3301,362.5,518.3301" style="stroke: #A80036; stroke-width: 1.25;"/><line style="stroke: #A80036; stroke-width: 1.25;" x1="135" x2="365" y1="518.3301" y2="518.3301"/><text fill="#000000" font-family="sans-serif" font-size="16.25" lengthAdjust="spacingAndGlyphs" textLength="201.25" x="143.75" y="512.2595">readProperty: "waterStatus"</text><polygon fill="#A80036" points="148.75,551.2695,136.25,556.2695,148.75,561.2695,143.75,556.2695" style="stroke: #A80036; stroke-width: 1.25;"/><line style="stroke: #A80036; stroke-width: 1.25; stroke-dasharray: 2.0,2.0;" x1="141.25" x2="365" y1="556.2695" y2="556.2695"/><text fill="#000000" font-family="sans-serif" font-size="16.25" lengthAdjust="spacingAndGlyphs" textLength="66.25" x="156.25" y="550.199">response</text><path d="M81.875,583.7695 L164.375,583.7695 L164.375,593.7695 L151.875,606.2695 L81.875,606.2695 L81.875,583.7695 " fill="#EEEEEE" style="stroke: #000000; stroke-width: 1.25;"/><rect fill="none" height="60.8789" style="stroke: #000000; stroke-width: 2.5;" width="398.75" x="81.875" y="583.7695"/><text fill="#000000" font-family="sans-serif" font-size="16.25" font-weight="bold" lengthAdjust="spacingAndGlyphs" textLength="26.25" x="100.625" y="601.8884">par</text><polygon fill="#A80036" points="351.25,629.6484,363.75,634.6484,351.25,639.6484,356.25,634.6484" style="stroke: #A80036; stroke-width: 1.25;"/><line style="stroke: #A80036; stroke-width: 1.25;" x1="135" x2="358.75" y1="634.6484" y2="634.6484"/><text fill="#000000" font-family="sans-serif" font-size="16.25" lengthAdjust="spacingAndGlyphs" textLength="147.5" x="143.75" y="628.5779">invokeAction: "brew"</text><path d="M56.875,670.8984 L148.125,670.8984 L148.125,680.8984 L135.625,693.3984 L56.875,693.3984 L56.875,670.8984 " fill="#EEEEEE" style="stroke: #000000; stroke-width: 1.25;"/><rect fill="none" height="258.0762" style="stroke: #000000; stroke-width: 2.5;" width="448.75" x="56.875" y="670.8984"/><text fill="#000000" font-family="sans-serif" font-size="16.25" font-weight="bold" lengthAdjust="spacingAndGlyphs" textLength="35" x="75.625" y="689.0173">loop</text><text fill="#000000" font-family="sans-serif" font-size="13.75" font-weight="bold" lengthAdjust="spacingAndGlyphs" textLength="25" x="166.875" y="687.6721">[3x]</text><path d="M69.375,702.5879 L163.125,702.5879 L163.125,712.5879 L150.625,725.0879 L69.375,725.0879 L69.375,702.5879 " fill="#EEEEEE" style="stroke: #000000; stroke-width: 1.25;"/><rect fill="none" height="217.6367" style="stroke: #000000; stroke-width: 2.5;" width="423.75" x="69.375" y="702.5879"/><text fill="#000000" font-family="sans-serif" font-size="16.25" font-weight="bold" lengthAdjust="spacingAndGlyphs" textLength="37.5" x="88.125" y="720.7068">strict</text><path d="M81.875,734.2773 L164.375,734.2773 L164.375,744.2773 L151.875,756.7773 L81.875,756.7773 L81.875,734.2773 " fill="#EEEEEE" style="stroke: #000000; stroke-width: 1.25;"/><rect fill="none" height="98.8184" style="stroke: #000000; stroke-width: 2.5;" width="398.75" x="81.875" y="734.2773"/><text fill="#000000" font-family="sans-serif" font-size="16.25" font-weight="bold" lengthAdjust="spacingAndGlyphs" textLength="26.25" x="100.625" y="752.3962">par</text><polygon fill="#A80036" points="357.5,780.1563,370,785.1563,357.5,790.1563,362.5,785.1563" style="stroke: #A80036; stroke-width: 1.25;"/><line style="stroke: #A80036; stroke-width: 1.25;" x1="135" x2="365" y1="785.1563" y2="785.1563"/><text fill="#000000" font-family="sans-serif" font-size="16.25" lengthAdjust="spacingAndGlyphs" textLength="201.25" x="143.75" y="779.0857">readProperty: "waterStatus"</text><polygon fill="#A80036" points="148.75,818.0957,136.25,823.0957,148.75,828.0957,143.75,823.0957" style="stroke: #A80036; stroke-width: 1.25;"/><line style="stroke: #A80036; stroke-width: 1.25; stroke-dasharray: 2.0,2.0;" x1="141.25" x2="365" y1="823.0957" y2="823.0957"/><text fill="#000000" font-family="sans-serif" font-size="16.25" lengthAdjust="spacingAndGlyphs" textLength="66.25" x="156.25" y="817.0251">response</text><path d="M81.875,850.5957 L164.375,850.5957 L164.375,860.5957 L151.875,873.0957 L81.875,873.0957 L81.875,850.5957 " fill="#EEEEEE" style="stroke: #000000; stroke-width: 1.25;"/><rect fill="none" height="60.8789" style="stroke: #000000; stroke-width: 2.5;" width="398.75" x="81.875" y="850.5957"/><text fill="#000000" font-family="sans-serif" font-size="16.25" font-weight="bold" lengthAdjust="spacingAndGlyphs" textLength="26.25" x="100.625" y="868.7146">par</text><polygon fill="#A80036" points="351.25,896.4746,363.75,901.4746,351.25,906.4746,356.25,901.4746" style="stroke: #A80036; stroke-width: 1.25;"/><line style="stroke: #A80036; stroke-width: 1.25;" x1="135" x2="358.75" y1="901.4746" y2="901.4746"/><text fill="#000000" font-family="sans-serif" font-size="16.25" lengthAdjust="spacingAndGlyphs" textLength="147.5" x="143.75" y="895.4041">invokeAction: "brew"</text><path d="M69.375,955.2246 L163.125,955.2246 L163.125,965.2246 L150.625,977.7246 L69.375,977.7246 L69.375,955.2246 " fill="#EEEEEE" style="stroke: #000000; stroke-width: 1.25;"/><rect fill="none" height="217.6367" style="stroke: #000000; stroke-width: 2.5;" width="423.75" x="69.375" y="955.2246"/><text fill="#000000" font-family="sans-serif" font-size="16.25" font-weight="bold" lengthAdjust="spacingAndGlyphs" textLength="37.5" x="88.125" y="973.3435">strict</text><path d="M81.875,986.9141 L164.375,986.9141 L164.375,996.9141 L151.875,1009.4141 L81.875,1009.4141 L81.875,986.9141 " fill="#EEEEEE" style="stroke: #000000; stroke-width: 1.25;"/><rect fill="none" height="98.8184" style="stroke: #000000; stroke-width: 2.5;" width="398.75" x="81.875" y="986.9141"/><text fill="#000000" font-family="sans-serif" font-size="16.25" font-weight="bold" lengthAdjust="spacingAndGlyphs" textLength="26.25" x="100.625" y="1005.033">par</text><polygon fill="#A80036" points="357.5,1032.793,370,1037.793,357.5,1042.793,362.5,1037.793" style="stroke: #A80036; stroke-width: 1.25;"/><line style="stroke: #A80036; stroke-width: 1.25;" x1="135" x2="365" y1="1037.793" y2="1037.793"/><text fill="#000000" font-family="sans-serif" font-size="16.25" lengthAdjust="spacingAndGlyphs" textLength="183.75" x="143.75" y="1031.7224">readProperty: "binStatus"</text><polygon fill="#A80036" points="148.75,1070.7324,136.25,1075.7324,148.75,1080.7324,143.75,1075.7324" style="stroke: #A80036; stroke-width: 1.25;"/><line style="stroke: #A80036; stroke-width: 1.25; stroke-dasharray: 2.0,2.0;" x1="141.25" x2="365" y1="1075.7324" y2="1075.7324"/><text fill="#000000" font-family="sans-serif" font-size="16.25" lengthAdjust="spacingAndGlyphs" textLength="66.25" x="156.25" y="1069.6619">response</text><path d="M81.875,1103.2324 L164.375,1103.2324 L164.375,1113.2324 L151.875,1125.7324 L81.875,1125.7324 L81.875,1103.2324 " fill="#EEEEEE" style="stroke: #000000; stroke-width: 1.25;"/><rect fill="none" height="60.8789" style="stroke: #000000; stroke-width: 2.5;" width="398.75" x="81.875" y="1103.2324"/><text fill="#000000" font-family="sans-serif" font-size="16.25" font-weight="bold" lengthAdjust="spacingAndGlyphs" textLength="26.25" x="100.625" y="1121.3513">par</text><polygon fill="#A80036" points="351.25,1149.1113,363.75,1154.1113,351.25,1159.1113,356.25,1154.1113" style="stroke: #A80036; stroke-width: 1.25;"/><line style="stroke: #A80036; stroke-width: 1.25;" x1="135" x2="358.75" y1="1154.1113" y2="1154.1113"/><text fill="#000000" font-family="sans-serif" font-size="16.25" lengthAdjust="spacingAndGlyphs" textLength="182.5" x="143.75" y="1148.0408">invokeAction: "shutdown"</text><polygon fill="#A80036" points="13.75,1184.1113,1.25,1189.1113,13.75,1194.1113,8.75,1189.1113" style="stroke: #A80036; stroke-width: 1.25;"/><line style="stroke: #A80036; stroke-width: 1.25;" x1="6.25" x2="127.5" y1="1189.1113" y2="1189.1113"/><!--MD5=[6b1b2c07026eede2b3e0eb2d66dd5d93]
@startuml topexample
[->"Agent": top:example()
activate "Agent"

alt variable unknown
    group strict
        par
            "Agent" -> "VirtualCoffeeMachine" : subscribeEvent: "error"
            activate "VirtualCoffeeMachine"
            "VirtualCoffeeMachine" - -> "Agent" : confirmation
            "VirtualCoffeeMachine" ->> "Agent" : data-pushed
        end
        par
            "Agent" -> "VirtualCoffeeMachine" : invokeAction: "abort"
        end
    end
else else
    group strict
        par
            "Agent" -> "VirtualCoffeeMachine" : readProperty: "waterStatus"
            activate "VirtualCoffeeMachine"
            "VirtualCoffeeMachine" - -> "Agent" : response
            deactivate "VirtualCoffeeMachine"
        end
        par
            "Agent" -> "VirtualCoffeeMachine" : invokeAction: "brew"
        end
    end
    loop 3x
        group strict
            par
                "Agent" -> "VirtualCoffeeMachine" : readProperty: "waterStatus"
                activate "VirtualCoffeeMachine"
                "VirtualCoffeeMachine" - -> "Agent" : response
                deactivate "VirtualCoffeeMachine"
            end
            par
                "Agent" -> "VirtualCoffeeMachine" : invokeAction: "brew"
            end
        end
    end
end
group strict
    par
        "Agent" -> "VirtualCoffeeMachine" : readProperty: "binStatus"
        activate "VirtualCoffeeMachine"
        "VirtualCoffeeMachine" - -> "Agent" : response
        deactivate "VirtualCoffeeMachine"
    end
    par
        "Agent" -> "VirtualCoffeeMachine" : invokeAction: "shutdown"
    end
end
 
[<-"Agent"
deactivate "Agent"
@enduml

PlantUML version 1.2020.19(Mon Oct 12 17:10:01 CEST 2020)
(GPL source distribution)
Java Runtime: OpenJDK Runtime Environment
JVM: OpenJDK 64-Bit Server VM
Default Encoding: Cp1252
Language: es
Country: ES
--></g></svg>