<?xml version="1.0" encoding="UTF-8" standalone="no"?><svg xmlns="http://www.w3.org/2000/svg" xmlns:xlink="http://www.w3.org/1999/xlink" contentScriptType="application/ecmascript" contentStyleType="text/css" height="1404px" preserveAspectRatio="none" style="width:524px;height:1404px;" version="1.1" viewBox="0 0 524 1404" width="524px" zoomAndPan="magnify"><defs><filter height="300%" id="ftst7qm68u36z" width="300%" x="-1" y="-1"><feGaussianBlur result="blurOut" stdDeviation="2.0"/><feColorMatrix in="blurOut" result="blurOut2" type="matrix" values="0 0 0 0 0 0 0 0 0 0 0 0 0 0 0 0 0 0 .4 0"/><feOffset dx="4.0" dy="4.0" in="blurOut2" result="blurOut3"/><feBlend in="SourceGraphic" in2="blurOut3" mode="normal"/></filter></defs><g><rect fill="#FFFFFF" filter="url(#ftst7qm68u36z)" height="1268.0625" style="stroke: #A80036; stroke-width: 1.0;" width="10" x="98" y="73.9609"/><rect fill="#FFFFFF" filter="url(#ftst7qm68u36z)" height="1196.0078" style="stroke: #A80036; stroke-width: 1.0;" width="10" x="307" y="155.0156"/><rect fill="#FFFFFF" filter="url(#ftst7qm68u36z)" height="30.3516" style="stroke: #A80036; stroke-width: 1.0;" width="10" x="312" y="373.4766"/><rect fill="#FFFFFF" filter="url(#ftst7qm68u36z)" height="30.3516" style="stroke: #A80036; stroke-width: 1.0;" width="10" x="312" y="586.9375"/><rect fill="#FFFFFF" filter="url(#ftst7qm68u36z)" height="568.9766" style="stroke: #A80036; stroke-width: 1.0;" width="10" x="312" y="782.0469"/><rect fill="#FFFFFF" filter="url(#ftst7qm68u36z)" height="30.3516" style="stroke: #A80036; stroke-width: 1.0;" width="10" x="317" y="1000.5078"/><rect fill="#FFFFFF" filter="url(#ftst7qm68u36z)" height="30.3516" style="stroke: #A80036; stroke-width: 1.0;" width="10" x="317" y="1213.9688"/><rect fill="#FFFFFF" filter="url(#ftst7qm68u36z)" height="204.4609" style="stroke: #000000; stroke-width: 2.0;" width="445" x="55.5" y="88.9609"/><rect fill="#FFFFFF" filter="url(#ftst7qm68u36z)" height="109.4063" style="stroke: #000000; stroke-width: 2.0;" width="333" x="65.5" y="114.3125"/><rect fill="#FFFFFF" filter="url(#ftst7qm68u36z)" height="48.7031" style="stroke: #000000; stroke-width: 2.0;" width="425" x="65.5" y="237.7188"/><rect fill="#FFFFFF" filter="url(#ftst7qm68u36z)" height="174.1094" style="stroke: #000000; stroke-width: 2.0;" width="445" x="55.5" y="307.4219"/><rect fill="#FFFFFF" filter="url(#ftst7qm68u36z)" height="79.0547" style="stroke: #000000; stroke-width: 2.0;" width="333" x="65.5" y="332.7734"/><rect fill="#FFFFFF" filter="url(#ftst7qm68u36z)" height="48.7031" style="stroke: #000000; stroke-width: 2.0;" width="425" x="65.5" y="425.8281"/><rect fill="#FFFFFF" filter="url(#ftst7qm68u36z)" height="206.4609" style="stroke: #000000; stroke-width: 2.0;" width="465" x="45.5" y="495.5313"/><rect fill="#FFFFFF" filter="url(#ftst7qm68u36z)" height="174.1094" style="stroke: #000000; stroke-width: 2.0;" width="445" x="55.5" y="520.8828"/><rect fill="#FFFFFF" filter="url(#ftst7qm68u36z)" height="79.0547" style="stroke: #000000; stroke-width: 2.0;" width="333" x="65.5" y="546.2344"/><rect fill="#FFFFFF" filter="url(#ftst7qm68u36z)" height="48.7031" style="stroke: #000000; stroke-width: 2.0;" width="425" x="65.5" y="639.2891"/><rect fill="#FFFFFF" filter="url(#ftst7qm68u36z)" height="204.4609" style="stroke: #000000; stroke-width: 2.0;" width="445" x="55.5" y="715.9922"/><rect fill="#FFFFFF" filter="url(#ftst7qm68u36z)" height="109.4063" style="stroke: #000000; stroke-width: 2.0;" width="333" x="65.5" y="741.3438"/><rect fill="#FFFFFF" filter="url(#ftst7qm68u36z)" height="48.7031" style="stroke: #000000; stroke-width: 2.0;" width="425" x="65.5" y="864.75"/><rect fill="#FFFFFF" filter="url(#ftst7qm68u36z)" height="174.1094" style="stroke: #000000; stroke-width: 2.0;" width="445" x="55.5" y="934.4531"/><rect fill="#FFFFFF" filter="url(#ftst7qm68u36z)" height="79.0547" style="stroke: #000000; stroke-width: 2.0;" width="333" x="65.5" y="959.8047"/><rect fill="#FFFFFF" filter="url(#ftst7qm68u36z)" height="48.7031" style="stroke: #000000; stroke-width: 2.0;" width="425" x="65.5" y="1052.8594"/><rect fill="#FFFFFF" filter="url(#ftst7qm68u36z)" height="206.4609" style="stroke: #000000; stroke-width: 2.0;" width="465" x="45.5" y="1122.5625"/><rect fill="#FFFFFF" filter="url(#ftst7qm68u36z)" height="174.1094" style="stroke: #000000; stroke-width: 2.0;" width="445" x="55.5" y="1147.9141"/><rect fill="#FFFFFF" filter="url(#ftst7qm68u36z)" height="79.0547" style="stroke: #000000; stroke-width: 2.0;" width="333" x="65.5" y="1173.2656"/><rect fill="#FFFFFF" filter="url(#ftst7qm68u36z)" height="48.7031" style="stroke: #000000; stroke-width: 2.0;" width="425" x="65.5" y="1266.3203"/><line style="stroke: #A80036; stroke-width: 1.0; stroke-dasharray: 5.0,5.0;" x1="102.5" x2="102.5" y1="41.6094" y2="1360.0234"/><line style="stroke: #A80036; stroke-width: 1.0; stroke-dasharray: 5.0,5.0;" x1="311.5" x2="311.5" y1="41.6094" y2="1360.0234"/><line style="stroke: #A80036; stroke-width: 1.0; stroke-dasharray: 5.0,5.0;" x1="439.5" x2="439.5" y1="41.6094" y2="1360.0234"/><rect fill="#FEFECE" filter="url(#ftst7qm68u36z)" height="31.6094" style="stroke: #A80036; stroke-width: 1.5;" width="51" x="75.5" y="5"/><text fill="#000000" font-family="sans-serif" font-size="14" lengthAdjust="spacingAndGlyphs" textLength="37" x="82.5" y="26.5332">Agent</text><rect fill="#FEFECE" filter="url(#ftst7qm68u36z)" height="31.6094" style="stroke: #A80036; stroke-width: 1.5;" width="51" x="75.5" y="1359.0234"/><text fill="#000000" font-family="sans-serif" font-size="14" lengthAdjust="spacingAndGlyphs" textLength="37" x="82.5" y="1380.5566">Agent</text><rect fill="#FEFECE" filter="url(#ftst7qm68u36z)" height="31.6094" style="stroke: #A80036; stroke-width: 1.5;" width="149" x="235.5" y="5"/><text fill="#000000" font-family="sans-serif" font-size="14" lengthAdjust="spacingAndGlyphs" textLength="135" x="242.5" y="26.5332">VirtualCoffeeMachine</text><rect fill="#FEFECE" filter="url(#ftst7qm68u36z)" height="31.6094" style="stroke: #A80036; stroke-width: 1.5;" width="149" x="235.5" y="1359.0234"/><text fill="#000000" font-family="sans-serif" font-size="14" lengthAdjust="spacingAndGlyphs" textLength="135" x="242.5" y="1380.5566">VirtualCoffeeMachine</text><rect fill="#FEFECE" filter="url(#ftst7qm68u36z)" height="31.6094" style="stroke: #A80036; stroke-width: 1.5;" width="78" x="398.5" y="5"/><text fill="#000000" font-family="sans-serif" font-size="14" lengthAdjust="spacingAndGlyphs" textLength="64" x="405.5" y="26.5332">TestThing</text><rect fill="#FEFECE" filter="url(#ftst7qm68u36z)" height="31.6094" style="stroke: #A80036; stroke-width: 1.5;" width="78" x="398.5" y="1359.0234"/><text fill="#000000" font-family="sans-serif" font-size="14" lengthAdjust="spacingAndGlyphs" textLength="64" x="405.5" y="1380.5566">TestThing</text><rect fill="#FFFFFF" filter="url(#ftst7qm68u36z)" height="1268.0625" style="stroke: #A80036; stroke-width: 1.0;" width="10" x="98" y="73.9609"/><rect fill="#FFFFFF" filter="url(#ftst7qm68u36z)" height="1196.0078" style="stroke: #A80036; stroke-width: 1.0;" width="10" x="307" y="155.0156"/><rect fill="#FFFFFF" filter="url(#ftst7qm68u36z)" height="30.3516" style="stroke: #A80036; stroke-width: 1.0;" width="10" x="312" y="373.4766"/><rect fill="#FFFFFF" filter="url(#ftst7qm68u36z)" height="30.3516" style="stroke: #A80036; stroke-width: 1.0;" width="10" x="312" y="586.9375"/><rect fill="#FFFFFF" filter="url(#ftst7qm68u36z)" height="568.9766" style="stroke: #A80036; stroke-width: 1.0;" width="10" x="312" y="782.0469"/><rect fill="#FFFFFF" filter="url(#ftst7qm68u36z)" height="30.3516" style="stroke: #A80036; stroke-width: 1.0;" width="10" x="317" y="1000.5078"/><rect fill="#FFFFFF" filter="url(#ftst7qm68u36z)" height="30.3516" style="stroke: #A80036; stroke-width: 1.0;" width="10" x="317" y="1213.9688"/><polygon fill="#A80036" points="86,69.9609,96,73.9609,86,77.9609,90,73.9609" style="stroke: #A80036; stroke-width: 1.0;"/><line style="stroke: #A80036; stroke-width: 1.0;" x1="0" x2="92" y1="73.9609" y2="73.9609"/><text fill="#000000" font-family="sans-serif" font-size="13" lengthAdjust="spacingAndGlyphs" textLength="79" x="7" y="69.1045">top:example()</text><path d="M55.5,88.9609 L130.5,88.9609 L130.5,96.9609 L120.5,106.9609 L55.5,106.9609 L55.5,88.9609 " fill="#EEEEEE" style="stroke: #000000; stroke-width: 1.0;"/><rect fill="none" height="204.4609" style="stroke: #000000; stroke-width: 2.0;" width="445" x="55.5" y="88.9609"/><text fill="#000000" font-family="sans-serif" font-size="13" font-weight="bold" lengthAdjust="spacingAndGlyphs" textLength="30" x="70.5" y="103.4561">strict</text><path d="M65.5,114.3125 L131.5,114.3125 L131.5,122.3125 L121.5,132.3125 L65.5,132.3125 L65.5,114.3125 " fill="#EEEEEE" style="stroke: #000000; stroke-width: 1.0;"/><rect fill="none" height="109.4063" style="stroke: #000000; stroke-width: 2.0;" width="333" x="65.5" y="114.3125"/><text fill="#000000" font-family="sans-serif" font-size="13" font-weight="bold" lengthAdjust="spacingAndGlyphs" textLength="21" x="80.5" y="128.8076">par</text><polygon fill="#A80036" points="295,151.0156,305,155.0156,295,159.0156,299,155.0156" style="stroke: #A80036; stroke-width: 1.0;"/><line style="stroke: #A80036; stroke-width: 1.0;" x1="108" x2="301" y1="155.0156" y2="155.0156"/><text fill="#000000" font-family="sans-serif" font-size="13" lengthAdjust="spacingAndGlyphs" textLength="180" x="115" y="150.1592">subscribeEvent: "maintenance"</text><polygon fill="#A80036" points="119,181.3672,109,185.3672,119,189.3672,115,185.3672" style="stroke: #A80036; stroke-width: 1.0;"/><line style="stroke: #A80036; stroke-width: 1.0; stroke-dasharray: 2.0,2.0;" x1="113" x2="306" y1="185.3672" y2="185.3672"/><text fill="#000000" font-family="sans-serif" font-size="13" lengthAdjust="spacingAndGlyphs" textLength="70" x="125" y="180.5107">confirmation</text><line style="stroke: #A80036; stroke-width: 1.0;" x1="108" x2="118" y1="215.7188" y2="211.7188"/><line style="stroke: #A80036; stroke-width: 1.0;" x1="108" x2="118" y1="215.7188" y2="219.7188"/><line style="stroke: #A80036; stroke-width: 1.0;" x1="108" x2="306" y1="215.7188" y2="215.7188"/><text fill="#000000" font-family="sans-serif" font-size="13" lengthAdjust="spacingAndGlyphs" textLength="71" x="125" y="210.8623">data-pushed</text><path d="M65.5,237.7188 L131.5,237.7188 L131.5,245.7188 L121.5,255.7188 L65.5,255.7188 L65.5,237.7188 " fill="#EEEEEE" style="stroke: #000000; stroke-width: 1.0;"/><rect fill="none" height="48.7031" style="stroke: #000000; stroke-width: 2.0;" width="425" x="65.5" y="237.7188"/><text fill="#000000" font-family="sans-serif" font-size="13" font-weight="bold" lengthAdjust="spacingAndGlyphs" textLength="21" x="80.5" y="252.2139">par</text><polygon fill="#A80036" points="427.5,274.4219,437.5,278.4219,427.5,282.4219,431.5,278.4219" style="stroke: #A80036; stroke-width: 1.0;"/><line style="stroke: #A80036; stroke-width: 1.0;" x1="108" x2="433.5" y1="278.4219" y2="278.4219"/><text fill="#000000" font-family="sans-serif" font-size="13" lengthAdjust="spacingAndGlyphs" textLength="126" x="115" y="273.5654">writeProperty: "string"</text><path d="M55.5,307.4219 L130.5,307.4219 L130.5,315.4219 L120.5,325.4219 L55.5,325.4219 L55.5,307.4219 " fill="#EEEEEE" style="stroke: #000000; stroke-width: 1.0;"/><rect fill="none" height="174.1094" style="stroke: #000000; stroke-width: 2.0;" width="445" x="55.5" y="307.4219"/><text fill="#000000" font-family="sans-serif" font-size="13" font-weight="bold" lengthAdjust="spacingAndGlyphs" textLength="30" x="70.5" y="321.917">strict</text><path d="M65.5,332.7734 L131.5,332.7734 L131.5,340.7734 L121.5,350.7734 L65.5,350.7734 L65.5,332.7734 " fill="#EEEEEE" style="stroke: #000000; stroke-width: 1.0;"/><rect fill="none" height="79.0547" style="stroke: #000000; stroke-width: 2.0;" width="333" x="65.5" y="332.7734"/><text fill="#000000" font-family="sans-serif" font-size="13" font-weight="bold" lengthAdjust="spacingAndGlyphs" textLength="21" x="80.5" y="347.2686">par</text><polygon fill="#A80036" points="300,369.4766,310,373.4766,300,377.4766,304,373.4766" style="stroke: #A80036; stroke-width: 1.0;"/><line style="stroke: #A80036; stroke-width: 1.0;" x1="108" x2="306" y1="373.4766" y2="373.4766"/><text fill="#000000" font-family="sans-serif" font-size="13" lengthAdjust="spacingAndGlyphs" textLength="164" x="115" y="368.6201">readProperty: "coffeeStatus"</text><polygon fill="#A80036" points="119,399.8281,109,403.8281,119,407.8281,115,403.8281" style="stroke: #A80036; stroke-width: 1.0;"/><line style="stroke: #A80036; stroke-width: 1.0; stroke-dasharray: 2.0,2.0;" x1="113" x2="306" y1="403.8281" y2="403.8281"/><text fill="#000000" font-family="sans-serif" font-size="13" lengthAdjust="spacingAndGlyphs" textLength="53" x="125" y="398.9717">response</text><path d="M65.5,425.8281 L131.5,425.8281 L131.5,433.8281 L121.5,443.8281 L65.5,443.8281 L65.5,425.8281 " fill="#EEEEEE" style="stroke: #000000; stroke-width: 1.0;"/><rect fill="none" height="48.7031" style="stroke: #000000; stroke-width: 2.0;" width="425" x="65.5" y="425.8281"/><text fill="#000000" font-family="sans-serif" font-size="13" font-weight="bold" lengthAdjust="spacingAndGlyphs" textLength="21" x="80.5" y="440.3232">par</text><polygon fill="#A80036" points="427.5,462.5313,437.5,466.5313,427.5,470.5313,431.5,466.5313" style="stroke: #A80036; stroke-width: 1.0;"/><line style="stroke: #A80036; stroke-width: 1.0;" x1="108" x2="433.5" y1="466.5313" y2="466.5313"/><text fill="#000000" font-family="sans-serif" font-size="13" lengthAdjust="spacingAndGlyphs" textLength="139" x="115" y="461.6748">invokeAction: "void-void"</text><path d="M45.5,495.5313 L118.5,495.5313 L118.5,503.5313 L108.5,513.5313 L45.5,513.5313 L45.5,495.5313 " fill="#EEEEEE" style="stroke: #000000; stroke-width: 1.0;"/><rect fill="none" height="206.4609" style="stroke: #000000; stroke-width: 2.0;" width="465" x="45.5" y="495.5313"/><text fill="#000000" font-family="sans-serif" font-size="13" font-weight="bold" lengthAdjust="spacingAndGlyphs" textLength="28" x="60.5" y="510.0264">loop</text><text fill="#000000" font-family="sans-serif" font-size="11" font-weight="bold" lengthAdjust="spacingAndGlyphs" textLength="20" x="133.5" y="508.9502">[3x]</text><path d="M55.5,520.8828 L130.5,520.8828 L130.5,528.8828 L120.5,538.8828 L55.5,538.8828 L55.5,520.8828 " fill="#EEEEEE" style="stroke: #000000; stroke-width: 1.0;"/><rect fill="none" height="174.1094" style="stroke: #000000; stroke-width: 2.0;" width="445" x="55.5" y="520.8828"/><text fill="#000000" font-family="sans-serif" font-size="13" font-weight="bold" lengthAdjust="spacingAndGlyphs" textLength="30" x="70.5" y="535.3779">strict</text><path d="M65.5,546.2344 L131.5,546.2344 L131.5,554.2344 L121.5,564.2344 L65.5,564.2344 L65.5,546.2344 " fill="#EEEEEE" style="stroke: #000000; stroke-width: 1.0;"/><rect fill="none" height="79.0547" style="stroke: #000000; stroke-width: 2.0;" width="333" x="65.5" y="546.2344"/><text fill="#000000" font-family="sans-serif" font-size="13" font-weight="bold" lengthAdjust="spacingAndGlyphs" textLength="21" x="80.5" y="560.7295">par</text><polygon fill="#A80036" points="300,582.9375,310,586.9375,300,590.9375,304,586.9375" style="stroke: #A80036; stroke-width: 1.0;"/><line style="stroke: #A80036; stroke-width: 1.0;" x1="108" x2="306" y1="586.9375" y2="586.9375"/><text fill="#000000" font-family="sans-serif" font-size="13" lengthAdjust="spacingAndGlyphs" textLength="164" x="115" y="582.0811">readProperty: "coffeeStatus"</text><polygon fill="#A80036" points="119,613.2891,109,617.2891,119,621.2891,115,617.2891" style="stroke: #A80036; stroke-width: 1.0;"/><line style="stroke: #A80036; stroke-width: 1.0; stroke-dasharray: 2.0,2.0;" x1="113" x2="306" y1="617.2891" y2="617.2891"/><text fill="#000000" font-family="sans-serif" font-size="13" lengthAdjust="spacingAndGlyphs" textLength="53" x="125" y="612.4326">response</text><path d="M65.5,639.2891 L131.5,639.2891 L131.5,647.2891 L121.5,657.2891 L65.5,657.2891 L65.5,639.2891 " fill="#EEEEEE" style="stroke: #000000; stroke-width: 1.0;"/><rect fill="none" height="48.7031" style="stroke: #000000; stroke-width: 2.0;" width="425" x="65.5" y="639.2891"/><text fill="#000000" font-family="sans-serif" font-size="13" font-weight="bold" lengthAdjust="spacingAndGlyphs" textLength="21" x="80.5" y="653.7842">par</text><polygon fill="#A80036" points="427.5,675.9922,437.5,679.9922,427.5,683.9922,431.5,679.9922" style="stroke: #A80036; stroke-width: 1.0;"/><line style="stroke: #A80036; stroke-width: 1.0;" x1="108" x2="433.5" y1="679.9922" y2="679.9922"/><text fill="#000000" font-family="sans-serif" font-size="13" lengthAdjust="spacingAndGlyphs" textLength="139" x="115" y="675.1357">invokeAction: "void-void"</text><path d="M55.5,715.9922 L130.5,715.9922 L130.5,723.9922 L120.5,733.9922 L55.5,733.9922 L55.5,715.9922 " fill="#EEEEEE" style="stroke: #000000; stroke-width: 1.0;"/><rect fill="none" height="204.4609" style="stroke: #000000; stroke-width: 2.0;" width="445" x="55.5" y="715.9922"/><text fill="#000000" font-family="sans-serif" font-size="13" font-weight="bold" lengthAdjust="spacingAndGlyphs" textLength="30" x="70.5" y="730.4873">strict</text><path d="M65.5,741.3438 L131.5,741.3438 L131.5,749.3438 L121.5,759.3438 L65.5,759.3438 L65.5,741.3438 " fill="#EEEEEE" style="stroke: #000000; stroke-width: 1.0;"/><rect fill="none" height="109.4063" style="stroke: #000000; stroke-width: 2.0;" width="333" x="65.5" y="741.3438"/><text fill="#000000" font-family="sans-serif" font-size="13" font-weight="bold" lengthAdjust="spacingAndGlyphs" textLength="21" x="80.5" y="755.8389">par</text><polygon fill="#A80036" points="300,778.0469,310,782.0469,300,786.0469,304,782.0469" style="stroke: #A80036; stroke-width: 1.0;"/><line style="stroke: #A80036; stroke-width: 1.0;" x1="108" x2="306" y1="782.0469" y2="782.0469"/><text fill="#000000" font-family="sans-serif" font-size="13" lengthAdjust="spacingAndGlyphs" textLength="132" x="115" y="777.1904">subscribeEvent: "error"</text><polygon fill="#A80036" points="119,808.3984,109,812.3984,119,816.3984,115,812.3984" style="stroke: #A80036; stroke-width: 1.0;"/><line style="stroke: #A80036; stroke-width: 1.0; stroke-dasharray: 2.0,2.0;" x1="113" x2="311" y1="812.3984" y2="812.3984"/><text fill="#000000" font-family="sans-serif" font-size="13" lengthAdjust="spacingAndGlyphs" textLength="70" x="125" y="807.542">confirmation</text><line style="stroke: #A80036; stroke-width: 1.0;" x1="108" x2="118" y1="842.75" y2="838.75"/><line style="stroke: #A80036; stroke-width: 1.0;" x1="108" x2="118" y1="842.75" y2="846.75"/><line style="stroke: #A80036; stroke-width: 1.0;" x1="108" x2="311" y1="842.75" y2="842.75"/><text fill="#000000" font-family="sans-serif" font-size="13" lengthAdjust="spacingAndGlyphs" textLength="71" x="125" y="837.8936">data-pushed</text><path d="M65.5,864.75 L131.5,864.75 L131.5,872.75 L121.5,882.75 L65.5,882.75 L65.5,864.75 " fill="#EEEEEE" style="stroke: #000000; stroke-width: 1.0;"/><rect fill="none" height="48.7031" style="stroke: #000000; stroke-width: 2.0;" width="425" x="65.5" y="864.75"/><text fill="#000000" font-family="sans-serif" font-size="13" font-weight="bold" lengthAdjust="spacingAndGlyphs" textLength="21" x="80.5" y="879.2451">par</text><polygon fill="#A80036" points="427.5,901.4531,437.5,905.4531,427.5,909.4531,431.5,905.4531" style="stroke: #A80036; stroke-width: 1.0;"/><line style="stroke: #A80036; stroke-width: 1.0;" x1="108" x2="433.5" y1="905.4531" y2="905.4531"/><text fill="#000000" font-family="sans-serif" font-size="13" lengthAdjust="spacingAndGlyphs" textLength="118" x="115" y="900.5967">writeProperty: "bool"</text><path d="M55.5,934.4531 L130.5,934.4531 L130.5,942.4531 L120.5,952.4531 L55.5,952.4531 L55.5,934.4531 " fill="#EEEEEE" style="stroke: #000000; stroke-width: 1.0;"/><rect fill="none" height="174.1094" style="stroke: #000000; stroke-width: 2.0;" width="445" x="55.5" y="934.4531"/><text fill="#000000" font-family="sans-serif" font-size="13" font-weight="bold" lengthAdjust="spacingAndGlyphs" textLength="30" x="70.5" y="948.9482">strict</text><path d="M65.5,959.8047 L131.5,959.8047 L131.5,967.8047 L121.5,977.8047 L65.5,977.8047 L65.5,959.8047 " fill="#EEEEEE" style="stroke: #000000; stroke-width: 1.0;"/><rect fill="none" height="79.0547" style="stroke: #000000; stroke-width: 2.0;" width="333" x="65.5" y="959.8047"/><text fill="#000000" font-family="sans-serif" font-size="13" font-weight="bold" lengthAdjust="spacingAndGlyphs" textLength="21" x="80.5" y="974.2998">par</text><polygon fill="#A80036" points="305,996.5078,315,1000.5078,305,1004.5078,309,1000.5078" style="stroke: #A80036; stroke-width: 1.0;"/><line style="stroke: #A80036; stroke-width: 1.0;" x1="108" x2="311" y1="1000.5078" y2="1000.5078"/><text fill="#000000" font-family="sans-serif" font-size="13" lengthAdjust="spacingAndGlyphs" textLength="147" x="115" y="995.6514">readProperty: "binStatus"</text><polygon fill="#A80036" points="119,1026.8594,109,1030.8594,119,1034.8594,115,1030.8594" style="stroke: #A80036; stroke-width: 1.0;"/><line style="stroke: #A80036; stroke-width: 1.0; stroke-dasharray: 2.0,2.0;" x1="113" x2="311" y1="1030.8594" y2="1030.8594"/><text fill="#000000" font-family="sans-serif" font-size="13" lengthAdjust="spacingAndGlyphs" textLength="53" x="125" y="1026.0029">response</text><path d="M65.5,1052.8594 L131.5,1052.8594 L131.5,1060.8594 L121.5,1070.8594 L65.5,1070.8594 L65.5,1052.8594 " fill="#EEEEEE" style="stroke: #000000; stroke-width: 1.0;"/><rect fill="none" height="48.7031" style="stroke: #000000; stroke-width: 2.0;" width="425" x="65.5" y="1052.8594"/><text fill="#000000" font-family="sans-serif" font-size="13" font-weight="bold" lengthAdjust="spacingAndGlyphs" textLength="21" x="80.5" y="1067.3545">par</text><polygon fill="#A80036" points="427.5,1089.5625,437.5,1093.5625,427.5,1097.5625,431.5,1093.5625" style="stroke: #A80036; stroke-width: 1.0;"/><line style="stroke: #A80036; stroke-width: 1.0;" x1="108" x2="433.5" y1="1093.5625" y2="1093.5625"/><text fill="#000000" font-family="sans-serif" font-size="13" lengthAdjust="spacingAndGlyphs" textLength="123" x="115" y="1088.7061">invokeAction: "int-int"</text><path d="M45.5,1122.5625 L118.5,1122.5625 L118.5,1130.5625 L108.5,1140.5625 L45.5,1140.5625 L45.5,1122.5625 " fill="#EEEEEE" style="stroke: #000000; stroke-width: 1.0;"/><rect fill="none" height="206.4609" style="stroke: #000000; stroke-width: 2.0;" width="465" x="45.5" y="1122.5625"/><text fill="#000000" font-family="sans-serif" font-size="13" font-weight="bold" lengthAdjust="spacingAndGlyphs" textLength="28" x="60.5" y="1137.0576">loop</text><text fill="#000000" font-family="sans-serif" font-size="11" font-weight="bold" lengthAdjust="spacingAndGlyphs" textLength="20" x="133.5" y="1135.9814">[2x]</text><path d="M55.5,1147.9141 L130.5,1147.9141 L130.5,1155.9141 L120.5,1165.9141 L55.5,1165.9141 L55.5,1147.9141 " fill="#EEEEEE" style="stroke: #000000; stroke-width: 1.0;"/><rect fill="none" height="174.1094" style="stroke: #000000; stroke-width: 2.0;" width="445" x="55.5" y="1147.9141"/><text fill="#000000" font-family="sans-serif" font-size="13" font-weight="bold" lengthAdjust="spacingAndGlyphs" textLength="30" x="70.5" y="1162.4092">strict</text><path d="M65.5,1173.2656 L131.5,1173.2656 L131.5,1181.2656 L121.5,1191.2656 L65.5,1191.2656 L65.5,1173.2656 " fill="#EEEEEE" style="stroke: #000000; stroke-width: 1.0;"/><rect fill="none" height="79.0547" style="stroke: #000000; stroke-width: 2.0;" width="333" x="65.5" y="1173.2656"/><text fill="#000000" font-family="sans-serif" font-size="13" font-weight="bold" lengthAdjust="spacingAndGlyphs" textLength="21" x="80.5" y="1187.7607">par</text><polygon fill="#A80036" points="305,1209.9688,315,1213.9688,305,1217.9688,309,1213.9688" style="stroke: #A80036; stroke-width: 1.0;"/><line style="stroke: #A80036; stroke-width: 1.0;" x1="108" x2="311" y1="1213.9688" y2="1213.9688"/><text fill="#000000" font-family="sans-serif" font-size="13" lengthAdjust="spacingAndGlyphs" textLength="147" x="115" y="1209.1123">readProperty: "binStatus"</text><polygon fill="#A80036" points="119,1240.3203,109,1244.3203,119,1248.3203,115,1244.3203" style="stroke: #A80036; stroke-width: 1.0;"/><line style="stroke: #A80036; stroke-width: 1.0; stroke-dasharray: 2.0,2.0;" x1="113" x2="311" y1="1244.3203" y2="1244.3203"/><text fill="#000000" font-family="sans-serif" font-size="13" lengthAdjust="spacingAndGlyphs" textLength="53" x="125" y="1239.4639">response</text><path d="M65.5,1266.3203 L131.5,1266.3203 L131.5,1274.3203 L121.5,1284.3203 L65.5,1284.3203 L65.5,1266.3203 " fill="#EEEEEE" style="stroke: #000000; stroke-width: 1.0;"/><rect fill="none" height="48.7031" style="stroke: #000000; stroke-width: 2.0;" width="425" x="65.5" y="1266.3203"/><text fill="#000000" font-family="sans-serif" font-size="13" font-weight="bold" lengthAdjust="spacingAndGlyphs" textLength="21" x="80.5" y="1280.8154">par</text><polygon fill="#A80036" points="427.5,1303.0234,437.5,1307.0234,427.5,1311.0234,431.5,1307.0234" style="stroke: #A80036; stroke-width: 1.0;"/><line style="stroke: #A80036; stroke-width: 1.0;" x1="108" x2="433.5" y1="1307.0234" y2="1307.0234"/><text fill="#000000" font-family="sans-serif" font-size="13" lengthAdjust="spacingAndGlyphs" textLength="123" x="115" y="1302.167">invokeAction: "int-int"</text><polygon fill="#A80036" points="11,1338.0234,1,1342.0234,11,1346.0234,7,1342.0234" style="stroke: #A80036; stroke-width: 1.0;"/><line style="stroke: #A80036; stroke-width: 1.0;" x1="5" x2="102" y1="1342.0234" y2="1342.0234"/><!--MD5=[76e4478a0b54e631a09dd092550792a3]
@startuml topexample
[->"Agent": top:example()
activate "Agent"

group strict
    par
        "Agent" -> "VirtualCoffeeMachine" : subscribeEvent: "maintenance"
        activate "VirtualCoffeeMachine"
        "VirtualCoffeeMachine" - -> "Agent" : confirmation
        "VirtualCoffeeMachine" ->> "Agent" : data-pushed
    end
    par
        "Agent" -> "TestThing" : writeProperty: "string"
    end
end
group strict
    par
        "Agent" -> "VirtualCoffeeMachine" : readProperty: "coffeeStatus"
        activate "VirtualCoffeeMachine"
        "VirtualCoffeeMachine" - -> "Agent" : response
        deactivate "VirtualCoffeeMachine"
    end
    par
        "Agent" -> "TestThing" : invokeAction: "void-void"
    end
end
loop 3x
    group strict
        par
            "Agent" -> "VirtualCoffeeMachine" : readProperty: "coffeeStatus"
            activate "VirtualCoffeeMachine"
            "VirtualCoffeeMachine" - -> "Agent" : response
            deactivate "VirtualCoffeeMachine"
        end
        par
            "Agent" -> "TestThing" : invokeAction: "void-void"
        end
    end
end
group strict
    par
        "Agent" -> "VirtualCoffeeMachine" : subscribeEvent: "error"
        activate "VirtualCoffeeMachine"
        "VirtualCoffeeMachine" - -> "Agent" : confirmation
        "VirtualCoffeeMachine" ->> "Agent" : data-pushed
    end
    par
        "Agent" -> "TestThing" : writeProperty: "bool"
    end
end
group strict
    par
        "Agent" -> "VirtualCoffeeMachine" : readProperty: "binStatus"
        activate "VirtualCoffeeMachine"
        "VirtualCoffeeMachine" - -> "Agent" : response
        deactivate "VirtualCoffeeMachine"
    end
    par
        "Agent" -> "TestThing" : invokeAction: "int-int"
    end
end
loop 2x
    group strict
        par
            "Agent" -> "VirtualCoffeeMachine" : readProperty: "binStatus"
            activate "VirtualCoffeeMachine"
            "VirtualCoffeeMachine" - -> "Agent" : response
            deactivate "VirtualCoffeeMachine"
        end
        par
            "Agent" -> "TestThing" : invokeAction: "int-int"
        end
    end
end
 
[<-"Agent"
deactivate "Agent"
@enduml

PlantUML version 1.2020.19(Mon Oct 12 17:10:01 CEST 2020)
(GPL source distribution)
Java Runtime: OpenJDK Runtime Environment
JVM: OpenJDK 64-Bit Server VM
Default Encoding: Cp1252
Language: es
Country: ES
--></g></svg>